<?xml version="1.0" encoding="UTF-8" standalone="no"?>
<!-- Created with Inkscape (http://www.inkscape.org/) -->

<svg
   version="1.1"
   id="svg9"
   width="45"
   height="45"
   viewBox="0 0 500 500"
   sodipodi:docname="poball_logo.svg"
   inkscape:version="1.1.2 (b8e25be833, 2022-02-05)"
   xmlns:inkscape="http://www.inkscape.org/namespaces/inkscape"
   xmlns:sodipodi="http://sodipodi.sourceforge.net/DTD/sodipodi-0.dtd"
   xmlns="http://www.w3.org/2000/svg"
   xmlns:svg="http://www.w3.org/2000/svg">
  <defs
     id="defs13" />
  <sodipodi:namedview
     id="namedview11"
     pagecolor="#ffffff"
     bordercolor="#666666"
     borderopacity="1.0"
     inkscape:pageshadow="2"
     inkscape:pageopacity="0.0"
     inkscape:pagecheckerboard="0"
     showgrid="false"
     fit-margin-top="0"
     fit-margin-left="0"
     fit-margin-right="0"
     fit-margin-bottom="0"
     inkscape:zoom="3.608"
     inkscape:cx="250"
     inkscape:cy="248.75277"
     inkscape:window-width="3840"
     inkscape:window-height="2126"
     inkscape:window-x="2869"
     inkscape:window-y="-539"
     inkscape:window-maximized="1"
     inkscape:current-layer="g15" />
  <g
     inkscape:groupmode="layer"
     inkscape:label="Image"
     id="g15">
    <path
       style="fill:#000000"
       d="m 251.5,432.9635 c -18.63417,-2.35327 -48.4511,-10.3329 -70,-18.73347 -2.75,-1.07205 -5.53755,-1.75819 -6.19456,-1.52475 -0.65701,0.23343 -2.11951,-0.0706 -3.25,-0.67561 C 170.5467,411.22222 170,411.22938 170,412.05659 c 0,0.61982 -2.92859,-0.48281 -6.50799,-2.45029 -3.57939,-1.96748 -6.84189,-3.58378 -7.25,-3.59177 -0.4081,-0.008 -0.74201,-0.45907 -0.74201,-1.00239 0,-0.54332 -1.66363,-2.11832 -3.69695,-3.5 -3.9174,-2.66194 -5.31782,-3.15407 -4.30305,-1.51214 0.79545,1.28706 -0.0833,1.26705 -2.81574,-0.0641 -1.37683,-0.67075 -0.97954,-0.0238 1.07475,1.75 2.98607,2.57842 4.31305,5.38347 2.49099,5.26559 -3.00368,-0.19433 -14.68887,-7.864 -22.77945,-14.95149 -11.34428,-9.93778 -22.16142,-22.99885 -30.989268,-37.41772 -11.803637,-19.27934 -13.52604,-24.03943 -18.104512,-50.03416 -1.351546,-7.67354 -3.63564,-18.02354 -5.075764,-23 C 69.229783,274.39084 68.663518,270.20126 68.591299,261.5 l -0.0913,-11 2.642245,-0.045 c 2.220592,-0.0378 3.066223,0.81952 5.299055,5.37218 1.461245,2.97942 3.064093,7.56472 3.561883,10.18956 0.497791,2.62484 1.564008,6.28237 2.369371,8.12783 l 1.464298,3.35539 0.08157,-6.25 c 0.04487,-3.4375 0.476871,-6.25 0.960013,-6.25 1.037543,0 3.393566,-14.75087 2.569095,-16.08489 C 87.136471,248.4118 85.516395,248 83.847363,248 c -2.193598,0 -3.179549,-0.55428 -3.557614,-2 -0.287656,-1.1 -1.354305,-2 -2.370329,-2 C 75.999586,244 71,237.58967 71,235.12811 c 0,-0.77419 0.7875,-2.04303 1.75,-2.81965 1.612853,-1.30136 1.573668,-1.36349 -0.5,-0.79285 -3.321086,0.91391 -2.867996,-1.58059 1.039667,-5.72392 2.364302,-2.50689 3.231039,-4.30432 3.081242,-6.38987 -0.114634,-1.596 -0.259956,-3.57682 -0.322937,-4.40182 -0.08458,-1.10792 -0.605143,-0.91188 -1.991534,0.75 -2.444158,2.92983 -3.319194,2.83741 -4.734027,-0.5 C 67.854268,211.78684 67.748642,204.49109 69.10549,200.26683 70.15794,196.99025 74.623622,193 77.238153,193 78.496402,193 86,183.35055 86,181.73247 c 0,-0.34164 1.553885,-2.31733 3.453078,-4.39041 1.899193,-2.07308 3.280817,-3.9415 3.070275,-4.15204 -0.210541,-0.21054 -2.370343,0.98466 -4.799559,2.65601 -2.429217,1.67134 -5.723341,3.35556 -7.320276,3.7427 -1.596935,0.38714 -4.739083,2.32555 -6.982551,4.30758 C 60.893992,194.96348 50.814343,201 44.861625,201 c -4.081149,0 -4.959393,-1.84712 -1.542165,-3.24347 1.237777,-0.50578 1.624043,-1.35918 1.20821,-2.66935 -0.425982,-1.34215 -0.04714,-2.10492 1.24992,-2.51659 1.023644,-0.32489 2.872954,-1.95922 4.109579,-3.63185 l 2.248409,-3.04113 -5.317789,2.65866 c -2.924784,1.46226 -6.505927,3.7722 -7.958095,5.13319 -3.078728,2.88543 -4.350838,1.82319 -3.338173,-2.78745 0.494488,-2.25138 2.061221,-3.93932 5.988031,-6.45127 2.925073,-1.87115 7.944546,-6.42786 11.154382,-10.12603 11.381057,-13.11252 14.676868,-16.37214 17.192249,-17.00346 1.399812,-0.35133 8.765838,-5.40484 16.368947,-11.23002 7.60311,-5.82518 15.34502,-11.36212 17.20426,-12.30432 1.85923,-0.9422 5.56071,-4.3172 8.22551,-7.5 12.43034,-14.8466 30.53982,-30.810074 47.8451,-42.175355 5.5,-3.612138 10.15,-6.914931 10.33333,-7.339539 C 170.01667,76.347407 170.80417,76 171.58333,76 172.3625,76 173,75.523442 173,74.940983 c 0,-0.582459 -0.3375,-0.860976 -0.75,-0.618926 -0.4125,0.24205 -3.82539,2.31195 -7.58421,4.599778 -7.86239,4.785494 -8.14587,3.80801 -0.37174,-1.281791 31.17911,-20.413266 67.47857,-31.042341 114.80568,-33.616972 34.88079,-1.897542 60.1208,1.899778 83.52758,12.566589 10.68785,4.87061 17.86521,9.340342 31.38445,19.544779 37.28547,28.14341 63.08839,64.34479 74.38763,104.36556 3.80998,13.49456 5.21305,21.5 3.76818,21.5 -0.60133,0 -0.58881,1.57385 0.0338,4.25 1.30457,5.60734 0.0698,29.1652 -1.75793,33.53962 -1.72268,4.12295 -3.41947,3.35096 -3.51373,-1.59864 -0.0566,-2.97467 -0.23707,-3.30284 -0.92971,-1.69098 -0.66315,1.54324 -0.87548,1.0159 -0.92971,-2.30902 -0.0478,-2.93088 -0.43106,-4.08605 -1.19831,-3.61186 -1.09545,0.67702 -0.71479,8.43933 0.70719,14.42088 0.4199,1.76627 0.3109,2.09993 -0.37137,1.13685 -0.81531,-1.15087 -1.04015,-1.15087 -1.4438,0 -1.04313,2.97415 -4.03855,-7.15195 -4.92137,-16.63685 -0.51193,-5.5 -1.79617,-15.12936 -2.85389,-21.39858 -1.05771,-6.26922 -1.69332,-11.7704 -1.41246,-12.22485 0.81253,-1.31469 -3.2423,-17.42749 -7.24909,-28.80597 -3.9563,-11.23507 -16.72054,-35.65613 -23.13824,-44.269 C 414.33768,110.92276 381.8211,82.881157 365.5,73.05189 353.71255,65.952983 344.58972,62.304444 327.13072,57.706685 311.66325,53.633388 311.31722,53.590512 294,53.601535 c -43.88546,0.02793 -81.56893,9.218346 -115.0881,28.068193 l -7.98091,4.488146 2.44223,1.921063 c 3.14365,2.47279 3.22912,2.464505 11.1257,-1.078453 9.32615,-4.18436 24.10801,-8.63939 36.4991,-11.000282 C 228.93833,74.487323 235.66112,74 248.59147,74 c 14.49106,0 17.98101,-0.304686 22.90853,-2 7.09863,-2.442286 11.5,-2.616873 11.5,-0.456163 0,0.84911 0.5625,1.470793 1.25,1.381517 2.73816,-0.355565 3.59478,0.190632 4.53672,2.892684 0.8767,2.514907 1.93601,3.069519 9.84783,5.155926 4.876,1.285839 12.60318,3.842722 17.17152,5.681962 4.56833,1.839241 9.06833,3.329145 10,3.310899 0.93166,-0.01825 5.74393,-1.621744 10.69393,-3.563329 10.56035,-4.142183 15.74714,-5.576861 16.6462,-4.604372 0.35638,0.385482 0.95751,2.6056 1.33586,4.933596 0.64545,3.971549 0.51297,4.308825 -2.14708,5.466138 -1.55924,0.678379 -4.22463,2.259002 -5.9231,3.512495 -1.69846,1.253493 -3.45811,1.943731 -3.91032,1.533862 -0.45222,-0.409868 -0.46871,-0.134505 -0.0367,0.611919 0.60942,1.052829 0.25297,1.193143 -1.58967,0.625772 -1.30638,-0.402249 -2.03751,-0.375239 -1.62474,0.06002 0.64864,0.683982 1.7195,0.926796 6.05853,1.37374 0.44496,0.04583 0.5011,0.581544 0.12477,1.190464 -0.44397,0.71836 -0.0257,0.91061 1.19098,0.54749 6.26243,-1.868968 7.49649,-1.872542 8.92879,-0.0259 1.26922,1.63643 1.37487,1.65164 0.8419,0.12124 -0.73674,-2.115561 1.42004,-2.394382 2.22831,-0.28807 0.30854,0.80407 1.41942,1.73439 2.46861,2.06739 2.72083,0.86356 2.36027,2.88518 -0.99032,5.55272 l -2.89795,2.30715 4.39409,3.55541 c 2.41675,1.95547 4.39583,4.02962 4.39795,4.60923 0.008,2.11891 6.69128,7.11219 14.00385,10.46231 4.125,1.8898 7.68637,3.55813 7.91415,3.70741 0.22778,0.14928 -0.41925,3.92037 -1.43784,8.38019 l -1.852,8.10877 -7.81216,6.05552 c -8.30277,6.43582 -9.87763,8.13988 -4.56215,4.93643 10.7773,-6.49508 21.0549,-11.76986 34.58657,-17.75087 12.91431,-5.70813 15.75724,-6.63147 18,-5.84606 1.63611,0.57296 2.78861,1.8075 2.98797,3.20067 0.1785,1.24738 1.191,2.80907 2.25,3.47042 2.43334,1.51965 2.46095,4.23023 0.0692,6.79742 -1.02092,1.09583 -6.53342,4.03408 -12.25,6.52945 -5.71658,2.49536 -10.84378,5.06746 -11.39378,5.71577 -0.55,0.64831 -2.69593,2.44557 -4.76873,3.99392 -4.20644,3.14214 -4.1226,4.91309 0.19174,4.05022 1.60855,-0.32171 4.30857,0.0864 6.21123,0.93893 1.85117,0.82941 4.60326,1.78382 6.11576,2.1209 1.80365,0.40197 2.75,1.25776 2.75,2.48683 0,1.03068 0.675,2.13298 1.5,2.44957 0.825,0.31658 1.5,1.56584 1.5,2.77613 0,1.21029 1.35,4.5926 3,7.51623 2.75871,4.88817 4.37771,10.02525 2,6.34601 -0.83392,-1.29041 -0.97151,-1.29566 -0.98469,-0.0376 -0.008,0.80433 -1.25281,2.45196 -2.76531,3.66138 l -2.75,2.19895 2.25,2.40307 c 1.2375,1.32168 2.26001,2.82406 2.27224,3.33861 0.0122,0.51455 0.90222,2.06055 1.97776,3.43555 1.07554,1.375 1.96553,3.21776 1.97776,4.09501 0.0122,0.87726 0.92558,2.41253 2.02967,3.41171 3.00714,2.72143 5.01184,7.08962 7.466,16.26823 1.30914,4.89622 2.96716,8.82673 4.06071,9.62635 1.73171,1.26626 1.77389,2.03654 0.66945,12.22506 -0.64829,5.9805 -1.43844,15.14864 -1.75588,20.37364 -0.96305,15.8517 -2.45304,26.27852 -3.91922,27.42635 -0.75428,0.59051 -2.71825,4.89865 -4.36438,9.57365 -1.64612,4.675 -3.75586,10.3 -4.68831,12.5 -7.08971,16.72737 -30.86477,42.02779 -47.93355,51.00887 -2.22324,1.1698 -5.56047,2.99635 -7.41606,4.05902 -2.46079,1.40924 -3.49588,1.60071 -3.82487,0.70752 -0.3223,-0.87504 -1.21463,-0.66536 -3.12618,0.73461 -2.6801,1.96284 -7.17514,1.82155 -7.17514,-0.22552 0,-2.68535 3.53827,-7.69922 7.96344,-11.2845 2.71536,-2.2 4.95942,-4.43695 4.98679,-4.971 0.0274,-0.53405 2.63727,-3.65313 5.79977,-6.93129 3.1625,-3.27815 4.625,-5.19734 3.25,-4.26486 -6.93981,4.70633 -7.42061,3.18781 -1.61123,-5.0887 2.60359,-3.70928 7.17586,-9.66915 10.1606,-13.24415 9.69836,-11.61631 16.16901,-27.83055 16.7242,-41.90773 0.39915,-10.12055 -0.35321,-29.51508 -1.09936,-28.33991 -0.62421,0.98312 -2.60958,1.01919 -9.23469,0.16778 -22.65098,-2.91092 -28.02353,-3.8613 -29.35494,-5.1927 -0.78893,-0.78894 -3.90378,-1.72465 -6.92189,-2.07937 -3.0181,-0.35472 -10.13938,-2.19024 -15.82507,-4.07893 -8.88672,-2.95202 -18.98427,-4.97524 -36.33762,-7.28088 -2.2,-0.2923 -4.33061,-1.03923 -4.73469,-1.65986 -0.44652,-0.68581 -0.74069,-0.351 -0.75,0.8536 -0.0199,2.5779 -4.61598,16.75933 -7.28592,22.48117 -3.59775,7.71017 -11.29828,12.9199 -19.22939,13.00947 -2.75,0.0311 -7.025,0.77426 -9.5,1.65155 -22.46295,7.96231 -49.56454,-6.66001 -56.11276,-30.27493 -3.80885,-13.7359 -1.9444,-26.62169 5.44183,-37.61011 C 217.97406,209.82884 222.87985,206 227.08887,206 c 4.30854,0 4.38136,1.71946 0.16393,3.87103 -4.22442,2.15514 -5.80108,4.64539 -6.72954,10.62897 l -0.62068,4 2.14641,-3.5 c 2.8252,-4.60686 9.01722,-11 10.65396,-11 2.06815,0 1.52271,1.92727 -1.69536,5.99042 -12.38971,15.64328 -10.0734,34.68116 5.36498,44.09508 3.41315,2.08125 7.27703,2.44213 9.62743,0.89919 1.3286,-0.87217 1.32955,-1.0942 0.008,-1.94308 -0.82043,-0.52712 -2.50793,-0.70333 -3.75,-0.39159 -3.18302,0.79888 -2.9266,-1.63558 0.52008,-4.9377 2.59476,-2.48594 3.13225,-2.60592 8.13281,-1.81544 5.75428,0.90963 9.0888,0.4873 9.0888,-1.15114 0,-0.56155 1.54781,-2.34311 3.43959,-3.95902 2.13978,-1.82776 3.22228,-3.50429 2.86456,-4.43651 -0.35102,-0.91474 0.98075,-3.12525 3.41863,-5.67435 2.19651,-2.29673 4.27799,-4.98851 4.62551,-5.98176 1.00211,-2.86419 -1.83813,-8.28298 -7.04482,-13.44054 -5.54004,-5.48778 -12.32406,-8.20046 -27.05347,-10.81772 -6.79071,-1.20663 -9.25,-2.03961 -9.25,-3.13305 0,-1.26452 1.47235,-1.3854 9.75,-0.80046 9.46249,0.66867 16.02524,1.70672 19.69626,3.11542 1.52071,0.58355 1.62535,0.40267 0.70356,-1.21612 -2.26296,-3.97408 -2.88453,-4.40305 -7.7016,-5.31522 -7.97651,-1.51044 -22.74537,-1.69495 -23.21369,-0.29 -0.22066,0.66198 -1.00655,1.20359 -1.74643,1.20359 -0.73989,0 -1.93989,0.57731 -2.66667,1.28291 -1.89761,1.8423 -7.51269,5.71709 -8.28482,5.71709 -0.36005,0 -0.33356,-0.51953 0.0589,-1.15451 0.40483,-0.65503 0.27779,-0.8852 -0.29366,-0.53203 -0.55395,0.34236 -1.86098,-0.0238 -2.90451,-0.81369 -1.04353,-0.78989 -2.63668,-1.45047 -3.54033,-1.46797 -1.7284,-0.0335 -3.22795,-2.62255 -2.34571,-4.05005 0.98557,-1.59468 -3.68386,-2.23774 -5.20482,-0.71679 -1.29403,1.29403 -1.0406,1.73623 2.11151,3.68434 1.97012,1.2176 3.58203,2.85212 3.58203,3.63226 0,1.88075 -0.81684,1.7993 -6.77092,-0.6751 l -5.03763,-2.09355 -7.84572,5.90263 c -4.31515,3.24644 -9.78678,7.29433 -12.15917,8.99531 -2.37239,1.70099 -3.94739,3.30196 -3.5,3.55773 0.44739,0.25576 4.53417,1.03126 9.08174,1.72332 4.54756,0.69206 8.51162,1.652 8.80901,2.1332 0.2974,0.48119 1.75167,0.88179 3.23171,0.89021 3.18607,0.0181 4.60455,0.85503 5.48254,3.23469 0.35512,0.9625 1.55979,1.75 2.67706,1.75 2.28319,0 2.46,0.74245 1.05613,4.4349 -0.55509,1.46001 -1.76138,2.5651 -2.8,2.5651 -1.00361,0 -2.25225,0.42545 -2.77475,0.94544 -1.20447,1.1987 -9.18262,1.52545 -12.36867,0.50656 -2.00377,-0.6408 -2.30935,-0.4886 -1.78139,0.88726 0.54835,1.42898 -0.23055,1.68202 -5.58132,1.81323 l -6.21862,0.15248 6.16777,0.59752 c 6.90475,0.66891 7.61545,1.02076 6.31499,3.12647 -0.71602,1.15939 -4.46496,1.59602 -17.69562,2.06095 -9.23293,0.32445 -21.51214,1.38459 -27.28714,2.35588 -11.93926,2.00804 -24.45002,2.37884 -37.40393,1.1086 l -8.90393,-0.87311 0.715307,10.38576 c 1.285789,18.66876 4.279122,29.51056 14.139023,51.2113 10.85103,23.88213 19.79791,37.50113 35.60946,54.20494 24.94447,26.35211 53.90471,42.5941 86.84407,48.70542 15.90632,2.95113 42.99243,2.95594 57.5,0.0102 11.36774,-2.30821 25.76901,-7.29486 36.11717,-12.50611 5.42106,-2.73 7.0495,-3.19865 7.0495,-2.02876 0,3.55502 -19.52837,12.70049 -35.74612,16.74052 -5.7313,1.42774 -15.59555,3.24172 -21.92055,4.03108 l -11.5,1.43519 10.63888,-0.54728 c 10.75981,-0.55351 14.01267,0.10139 14.42401,2.904 0.15285,1.04145 -0.53313,1.33399 -2.42487,1.03409 -1.97802,-0.31358 -2.27919,-0.16772 -1.20376,0.58298 1.10264,0.76969 0.6402,1.09762 -2,1.41825 -2.579,0.3132 -2.12682,0.45692 1.81574,0.5771 3.7442,0.11414 5.25,0.55958 5.25,1.55305 0,0.76616 -0.7875,1.73638 -1.75,2.15605 -2.61005,1.13805 -27.71561,1.42909 -35.75,0.41444 z m 24.7553,-3.09524 c -0.3898,-1.49058 0.1647,-2.70353 1.84362,-4.03285 L 280.5,423.9343 277,424.41738 c -10.44036,1.441 -14.83059,1.55735 -22.7614,0.60322 -4.80623,-0.57822 -12.7886,-1.53218 -17.7386,-2.11992 -8.99477,-1.06799 -10.43817,-1.33029 -24.5,-4.45221 -8.7913,-1.95179 -19.38975,-5.53658 -29,-9.80889 -5.51275,-2.45072 -18.9787,-10.76885 -20.1995,-12.47753 -0.71528,-1.00113 -3.7755,-3.9727 -6.8005,-6.6035 -17.77582,-15.45934 -39.97956,-41.72246 -39.99626,-47.30855 -0.01,-3.24907 3.37907,-0.50965 8.65933,7 3.19046,4.5375 10.98395,13.4557 17.31888,19.81822 10.36872,10.41388 10.56359,10.56355 1.95293,1.5 C 128.37338,354.18823 118.76893,340.5655 110.39781,323 c -2.75217,-5.775 -5.96465,-12.525 -7.13884,-15 -1.60129,-3.37524 -2.15041,-3.93762 -2.19694,-2.25 -0.0341,1.2375 -0.62453,2.2351 -1.31203,2.2169 C 97.700653,307.91262 89,293.50445 89,290.16504 c 0,-2.34598 -0.372068,-2.8805 -1.753565,-2.51923 -1.155669,0.30221 -2.308605,-0.49687 -3.381442,-2.34362 C 82.026261,282.13704 77,267.52624 77,265.34639 c 0,-2.39574 -3.812664,-9.06053 -5.568648,-9.73436 -1.376811,-0.52833 -1.539207,-0.1779 -0.969486,2.09205 0.376395,1.49968 0.843584,5.73338 1.038197,9.40821 0.194612,3.67484 1.315771,9.9115 2.491463,13.85926 1.175692,3.94775 2.575873,9.73164 3.111512,12.85309 3.162827,18.43143 3.953085,22.47562 5.896438,30.17536 4.440012,17.59173 24.000654,47.29106 41.699964,63.31394 4.29031,3.88394 6.11306,5.27071 4.05056,3.08172 C 124.90903,386.31913 124.01248,384 126.27749,384 c 0.70262,0 4.40275,2.25 8.22251,5 3.81976,2.75 7.65587,5 8.52469,5 0.86882,0 6.28119,3.08977 12.02749,6.86615 5.7463,3.77638 11.79782,7.13123 13.44782,7.45523 9.51196,1.8678 13.74134,3.10499 30.88946,9.0359 24.45779,8.45904 52.0636,14.24364 69.26692,14.51436 7.8598,0.12369 8.13611,0.0508 7.59892,-2.00338 z m -4.52613,-10.47243 c -0.33229,-0.33229 -1.1948,-0.36781 -1.91667,-0.0789 -0.79773,0.31922 -0.56078,0.55618 0.60417,0.60416 1.05416,0.0434 1.64479,-0.19293 1.3125,-0.52522 z m -91.21603,-16.47598 c -4.94278,-2.77409 -10.44774,-6.15806 -12.23324,-7.51993 -2.18097,-1.66351 -3.04959,-1.96332 -2.64675,-0.91354 0.78017,2.03309 20.06693,13.37839 22.86685,13.45125 0.55,0.0143 -3.04409,-2.24369 -7.98686,-5.01778 z M 164,388.62244 c 0,-0.20765 -0.7875,-0.99515 -1.75,-1.75 -1.58606,-1.24387 -1.62143,-1.2085 -0.37756,0.37756 1.30637,1.66575 2.12756,2.19548 2.12756,1.37244 z m -5,-3.96745 c 0,-0.18976 -1.0125,-1.20226 -2.25,-2.25 L 154.5,380.5 l 1.90499,2.25 c 1.79022,2.11444 2.59501,2.70524 2.59501,1.90499 z m 211,-9.19387 c 18.07172,-13.36976 21.91001,-16.63566 29.08209,-24.74518 12.57387,-14.21735 20.85599,-28.3807 25.55828,-43.70752 2.87161,-9.35982 3.94987,-11.23982 4.95068,-8.63174 1.36075,3.54605 -3.5409,20.84028 -8.67948,30.62332 -2.16667,4.125 -3.22175,6.6 -2.34461,5.5 2.92644,-3.67 7.1472,-12.88917 10.98777,-24 2.09125,-6.05 4.12185,-11.225 4.51244,-11.5 C 435.35904,298.09046 437,284.27497 437,274.30807 c 0,-5.39485 0.64445,-12.88896 1.43211,-16.65357 C 439.94317,250.43238 439.68138,248 437.39301,248 436.60406,248 436,246.99757 436,245.68834 c 0,-4.58359 -4.12263,-17.91813 -6.78242,-21.93757 -1.49467,-2.25872 -4.2956,-6.93218 -6.22428,-10.38547 -1.92869,-3.45329 -4.06619,-6.83819 -4.75,-7.522 -0.68382,-0.68382 -1.2682,-2.6158 -1.29863,-4.2933 -0.0379,-2.08704 -0.91517,-3.72653 -2.77871,-5.19279 -3.02644,-2.38125 -8.59957,-5.59858 -11.66596,-6.73469 -1.60465,-0.59453 -1.7529,-0.49209 -0.75,0.51823 0.6875,0.69259 1.25,2.32663 1.25,3.63121 0,2.29172 -0.18603,2.34871 -5.5,1.68477 -5.48714,-0.68557 -5.5,-0.68082 -5.5,2.03302 0,1.49611 1.35,4.72052 3,7.16536 3.10444,4.5999 3.8278,7.90229 1.87363,8.55368 -0.74404,0.24801 -0.40459,1.79028 1,4.5435 1.1695,2.29242 2.12637,4.86096 2.12637,5.70787 0,0.84691 0.45,1.53984 1,1.53984 0.55,0 1,0.91793 1,2.03984 0,1.12191 0.9,3.80398 2,5.96016 2.25171,4.41372 2.63478,9.00526 0.75,8.98965 -0.6875,-0.006 -6.425,-0.92294 -12.75,-2.03831 -15.65879,-2.76133 -52,-3.99777 -52,-1.7692 0,1.24564 -3.39772,1.67069 -20.25,2.5333 -11.1375,0.57009 -20.38484,0.91999 -20.54965,0.77756 -0.16481,-0.14243 0.22941,-3.29706 0.87604,-7.01028 2.23918,-12.85832 -0.68706,-25.01402 -7.87031,-32.69349 -2.55372,-2.73013 -5.97706,-5.65368 -7.60743,-6.49678 -5.73243,-2.96435 -20.44956,-7.04438 -23.30263,-6.46018 l -2.79602,0.57252 3,0.59435 c 1.90535,0.37749 -0.83127,0.85981 -7.5,1.32186 -16.20024,1.12244 -19.67264,2.34426 -7.09513,2.49653 8.63072,0.1045 11.5294,0.56703 17,2.71263 16.11445,6.32019 20.39623,9.51937 21.70858,16.21984 0.83889,4.28309 -1.84887,4.51007 -3.59138,0.30329 -0.97901,-2.36356 -1.48578,-2.70989 -2.5607,-1.75 -1.11721,0.99765 -1.1007,1.38138 0.0992,2.30695 2.09946,1.61938 1.91889,9.26852 -0.23833,10.09633 -1.12931,0.43335 -2.19164,-0.14876 -3.25,-1.78088 -0.86476,-1.33357 -2.92229,-3.79574 -4.57229,-5.47148 -1.65,-1.67574 -2.03338,-1.90097 -0.85196,-0.50051 6.83964,8.10773 8.13282,14.77642 3.85196,19.86393 -1.375,1.6341 -2.5,3.76511 -2.5,4.73559 0,0.97048 -2.25,3.95613 -5,6.63479 -2.75,2.67865 -5,5.29859 -5,5.82208 0,1.53344 -4.7602,2.29447 -10.58892,1.69289 -5.54,-0.57178 -6.97096,0.39183 -3.41108,2.29702 4.40153,2.35562 0.39017,7.98175 -5.71482,8.01531 -1.55333,0.009 -2.28349,0.34026 -1.65086,0.75 0.62387,0.40408 1.30254,1.63469 1.50814,2.73469 0.25202,1.34833 2.07817,2.65167 5.60456,4 7.05631,2.69801 7.05784,4.90756 0.003,4.28254 -10.54092,-0.93386 -19.9666,-7.6205 -24.75,-17.5578 -1.375,-2.8565 -3.04955,-5.20064 -3.72122,-5.20919 -0.67167,-0.009 -2.18286,-3.18156 -3.3582,-7.05113 -2.26908,-7.47044 -2.16575,-10.96217 0.64638,-21.84174 1.6303,-6.3073 0.6587,-9.68785 -1.71039,-5.95107 -2.6393,4.16298 -4.81168,9.48135 -6.03163,14.76643 -1.52375,6.60125 0.22007,18.25118 3.8595,25.7841 5.1627,10.68583 18.40081,20.94864 30.78913,23.86919 7.26795,1.71342 7.55021,1.70557 15.71366,-0.43679 4.57202,-1.19986 9.66574,-2.17548 11.31937,-2.16805 11.07469,0.0498 20.14826,-8.39214 23.09423,-21.48649 0.37122,-1.65 1.01412,-3.45 1.42868,-4 0.41455,-0.55 1.28441,-3.5875 1.93301,-6.75 l 1.17928,-5.75 h 4.23942 c 8.16338,0 35.22778,3.94562 47.11878,6.86928 6.6,1.62275 13.93708,3.25972 16.30462,3.63772 3.27923,0.52354 4.22293,1.08098 3.96168,2.34013 -0.20222,0.97466 -1.14786,1.55178 -2.30461,1.4065 -5.0631,-0.63589 -14.85301,-1.2241 -13.96169,-0.83887 0.55,0.23771 3.58777,0.72405 6.7506,1.08075 3.16283,0.35671 6.42736,1.3253 7.2545,2.15244 2.00424,2.00425 21.45988,4.70929 28.27289,3.93096 10.31069,-1.1779 9.9104,-1.81665 10.74697,17.14876 0.60077,13.61962 0.43309,18.07651 -0.94367,25.08353 -1.85866,9.45968 -6.71739,20.85553 -12.06634,28.30088 -1.93139,2.68836 -3.11413,4.88792 -2.6283,4.88792 0.48583,0 1.62046,-1.125 2.52139,-2.5 1.78533,-2.72476 4.59196,-3.36833 4.59196,-1.05296 0,0.79588 -2.2247,4.38627 -4.94377,7.97867 -2.71907,3.59239 -5.79623,8.45372 -6.83812,10.80296 -1.2968,2.92398 -4.60151,6.59266 -10.47646,11.63033 -4.72016,4.04744 -9.968,9.08356 -11.66188,11.19136 -3.16533,3.93883 -4.04212,5.95477 -1.82977,4.20705 0.6875,-0.54311 4.175,-3.15144 7.75,-5.79629 z m 13,-19.26703 c 0.275,-0.25575 -0.4,0.009 -1.5,0.58838 -1.1,0.57936 -3.575,2.76205 -5.5,4.85042 -3.32657,3.6089 -3.25224,3.57974 1.5,-0.58838 2.75,-2.41199 5.225,-4.59468 5.5,-4.85042 z m 29.06496,-12.14689 c 2.74118,-4.00443 2.7915,-4.18911 0.42153,-1.5472 -1.48016,1.65 -3.60072,4.125 -4.71236,5.5 -1.11164,1.375 -5.0026,5.65 -8.64659,9.5 -6.52591,6.89484 -6.50187,6.88053 1.59963,-0.9528 4.52379,-4.37404 9.6258,-9.99904 11.33779,-12.5 z M 94.119064,289.3769 c -1.078254,-4.33229 -2.250165,-9.61038 -2.604246,-11.72908 -0.354081,-2.1187 -0.905008,-3.59096 -1.224282,-3.27169 -1.090258,1.09026 1.932806,19.0436 3.57713,21.24381 0.897784,1.2013 1.762727,2.06036 1.922097,1.90902 0.15937,-0.15133 -0.592445,-3.81976 -1.670699,-8.15206 z m -8.43595,-19.5644 c -0.319226,-0.79773 -0.556183,-0.56078 -0.604167,0.60417 -0.04342,1.05416 0.192928,1.64479 0.52522,1.3125 0.332291,-0.33229 0.367818,-1.1948 0.07895,-1.91667 z M 240,270 c 0,-1.1 -0.62978,-2 -1.39951,-2 -0.76973,0 -3.67762,-1.53306 -6.46198,-3.40679 -4.47122,-3.00891 -4.88073,-3.12942 -3.50638,-1.0319 C 229.89302,265.48568 238.41492,272 239.67144,272 239.85215,272 240,271.1 240,270 Z m 162,-3.44098 c 0,-1.05548 -1.91911,-1.49891 -2.48992,-0.57533 -0.34546,0.55897 0.0734,1.01631 0.9309,1.01631 C 401.29844,267 402,266.80156 402,266.55902 Z M 92.692991,261.26903 C 92.439447,260.29606 92.215328,260.85 92.194949,262.5 c -0.02038,1.65 0.187065,2.44606 0.460988,1.76903 0.273923,-0.67703 0.290597,-2.02703 0.03705,-3 z M 238,264 c -0.825,-0.53316 -1.95,-0.96937 -2.5,-0.96937 -0.55,0 -0.325,0.43621 0.5,0.96937 0.825,0.53316 1.95,0.96937 2.5,0.96937 0.55,0 0.325,-0.43621 -0.5,-0.96937 z M 92.717581,252.26375 C 92.487727,250.74369 92.293522,251.75 92.286014,254.5 c -0.0075,2.75 0.180555,3.99369 0.417917,2.76375 0.237362,-1.22994 0.243505,-3.47994 0.01365,-5 z M 139.5,247.90706 c 3.85,-0.66436 14.425,-1.50356 23.5,-1.86489 9.075,-0.36132 14.475,-0.78848 12,-0.94924 -6.487,-0.42135 -9.44338,-1.44117 -9.81807,-3.38678 C 164.901,240.24741 165.74439,240 170.9981,240 c 4.12867,0 6.6369,-0.49215 7.64476,-1.5 1.03117,-1.03117 3.58739,-1.50344 8.17857,-1.51101 8.94068,-0.0147 14.17857,-0.95992 14.17857,-2.55856 0,-0.80878 -1.81265,-1.53855 -4.75,-1.91234 -2.6125,-0.33244 -7.45,-1.02519 -10.75,-1.53944 -6.98334,-1.08823 -23.61176,-2.63143 -38.29627,-3.55408 -12.07105,-0.75845 -13.33281,-2.52034 -2.62273,-3.66233 6.06714,-0.64692 14.68763,-0.20488 32.919,1.68802 4.09648,0.42532 4.36753,0.36839 1.5,-0.31506 -9.88876,-2.35689 -17.84703,-3.30679 -29.01221,-3.4629 -8.84222,-0.12364 -12.43994,-0.52534 -12.73845,-1.4223 C 136.70853,218.62498 115,218.44764 115,220.06824 c 0,1.00432 -5.70433,1.2225 -23.483499,0.89821 -3.290925,-0.06 -6.5643,-0.59116 -7.274166,-1.18029 -0.709867,-0.58914 -1.465789,-0.89454 -1.679827,-0.67866 -3.58749,3.61829 -6.494137,8.53256 -5.988691,10.12508 0.334264,1.05317 0.07922,3.19086 -0.566772,4.75041 -1.637892,3.95422 0.08995,7.01701 3.958588,7.01701 2.235415,0 2.968093,0.50972 3.214816,2.23654 0.374545,2.62143 2.590339,3.1545 27.319551,6.5724 5.57802,0.77095 18.37385,-0.0682 29,-1.90188 z m 81.2298,-13.63476 c -0.21648,-2.07476 -0.39722,-0.6223 -0.40166,3.2277 -0.004,3.85 0.17268,5.54754 0.39359,3.7723 0.22091,-1.77523 0.22454,-4.92523 0.008,-7 z m 182.11971,2.72586 c -0.57554,-1.65101 -1.45213,-3.25257 -1.94798,-3.55902 C 400.40569,233.1327 400,231.99269 400,230.9058 c 0,-1.61037 -1.06794,-3.89566 -3.61883,-7.74396 -0.12329,-0.18599 -2.29004,0.87252 -4.815,2.35225 -4.28559,2.51152 -7.56617,2.77823 -7.56617,0.61512 0,-0.51346 1.2375,-1.39282 2.75,-1.95415 1.5125,-0.56132 4.02466,-2.07761 5.58258,-3.36953 2.64342,-2.1921 2.74676,-2.54783 1.54752,-5.32724 -0.70679,-1.63806 -1.34835,-3.09519 -1.42569,-3.23807 C 392.08553,211.55883 382,216.3918 382,217.24996 c 0,0.54081 -0.99045,0.7243 -2.20099,0.40773 -1.21054,-0.31656 -5.37304,0.47121 -9.25,1.75062 -8.67328,2.8622 -16.19316,3.2237 -18.75885,0.90179 -1.4086,-1.27477 -2.11196,-1.3883 -3.01379,-0.48647 -1.70107,1.70107 -3.85208,1.44889 -6.21192,-0.72827 -2.03847,-1.88068 -2.15859,-1.86088 -9.54608,1.57306 -7.23225,3.36179 -7.53224,3.41532 -9,1.60601 -0.8351,-1.02943 -2.30587,-2.17318 -3.26837,-2.54167 -0.9625,-0.3685 -1.75,-1.37734 -1.75,-2.24187 0,-0.86453 -0.9674,-2.88035 -2.14978,-4.47961 -2.05028,-2.77315 -2.2794,-2.8407 -4.95034,-1.45951 C 310.35957,212.3483 307.61447,213 305.79966,213 H 302.5 v 13 13 l 9,-0.0812 c 7.68028,-0.0693 8.63341,-0.25342 6.5,-1.25558 -1.375,-0.6459 -2.59383,-1.67834 -2.70851,-2.29431 -0.28243,-1.51701 10.23685,-2.62799 17.45851,-1.84387 3.1625,0.34338 12.725,0.76427 21.25,0.93532 21.38713,0.4291 46.85433,3.06065 48.8404,5.04672 1.02207,1.02208 1.02432,0.40332 0.009,-2.5089 z m -64.12034,-0.60233 c -0.33229,-0.33229 -1.1948,-0.36781 -1.91667,-0.0789 -0.79773,0.31922 -0.56078,0.55618 0.60417,0.60416 1.05416,0.0434 1.64479,-0.19293 1.3125,-0.52522 z M 217.68311,233.8125 c -0.31922,-0.79773 -0.55618,-0.56078 -0.60416,0.60417 -0.0434,1.05416 0.19292,1.64479 0.52522,1.3125 0.33229,-0.3323 0.36781,-1.1948 0.0789,-1.91667 z m 251.68984,-28.55921 c -0.88436,-5.08569 -1.34242,-10.26069 -1.01791,-11.5 0.67828,-2.59038 -5.55751,-24.66044 -8.28839,-29.33472 -0.99015,-1.69478 -2.37393,-4.84478 -3.07506,-7 C 454.30524,149.16098 445.09234,134.05603 432.64422,117.5 420.56249,101.43128 394.02386,77.914692 375,66.419936 359.9281,57.313066 344.60544,51.567494 325.5,47.858815 c -10.50753,-2.039684 -54.56254,-1.731101 -69.46986,0.4866 -17.79665,2.647535 -42.68332,8.213976 -38.53014,8.618098 1.64671,0.160232 -1.6126,1.720667 -8.28236,3.965293 -9.60153,3.231275 -28.34032,12.355706 -36.18801,17.620939 C 169.16333,81.143747 166,83.482991 166,83.748066 c 0,0.265075 1.17785,-0.289805 2.61745,-1.233067 14.73696,-9.656027 36.0902,-19.203543 53.51863,-23.929385 29.01293,-7.867064 67.96858,-11.499654 90.95492,-8.48149 8.50995,1.117378 13.06152,2.742523 6.15809,2.198755 -2.062,-0.16242 2.10091,1.231966 9.25091,3.098634 16.36858,4.273385 17.30269,4.586091 27,9.038588 13.17327,6.048474 20.88888,11.389489 41.95432,29.042232 19.73217,16.535477 28.50066,26.372957 36.56043,41.017667 8.45362,15.36034 10.41475,19.37469 13.62203,27.88363 4.3394,11.5125 8.49557,28.31856 8.93164,36.11637 0.56023,10.01811 4.13639,29.33177 4.95309,26.75 0.39417,-1.24604 1.52205,-2.25 2.52773,-2.25 1.02984,0 2.08882,0.97403 2.44622,2.25 0.34663,1.2375 1.16446,3.33589 1.81739,4.66308 2.19913,4.47009 2.9774,-13.63396 1.0601,-24.65979 z m -275.64378,24.14254 c -0.3323,-0.33229 -1.1948,-0.36781 -1.91667,-0.0789 -0.79773,0.31922 -0.56078,0.55618 0.60417,0.60416 1.05416,0.0434 1.64479,-0.19293 1.3125,-0.52522 z m -11.9983,-18.23706 c 9.27243,-6.86595 12.91553,-10.11237 12.17687,-10.85103 -0.73866,-0.73866 0.27022,-2.13909 3.37212,-4.68087 C 201.69619,192.00802 204,191.10748 204,193 c 0,0.55 1.07325,1 2.38499,1 2.65452,0 6.14374,4.33548 4.99071,6.20112 -0.38908,0.62955 0.36734,0.39184 1.68094,-0.52824 3.30998,-2.3184 4.26601,-2.09456 3.53272,0.82712 -0.34511,1.375 -0.37806,2.5 -0.0732,2.5 C 217.97237,203 222,199.6105 222,198.38499 222,197.62325 222.375,197 222.83333,197 c 0.45834,0 2.37084,-1.52054 4.25,-3.37897 1.87917,-1.85843 6.78315,-4.78343 10.89773,-6.5 C 245.70149,183.90014 249,183.26521 249,185 c 0,0.57564 3.10792,1 7.32377,1 7.68041,0 19.93525,3.02272 28.82523,7.10988 4.43502,2.039 4.80249,2.0608 7.98407,0.47362 3.14379,-1.56833 3.40995,-1.56136 4.64045,0.12145 0.71796,0.98187 1.18061,2.73736 1.0281,3.9011 -0.1525,1.16375 0.22108,2.74096 0.83016,3.50492 0.60909,0.76397 1.40291,3.03071 1.76404,5.0372 0.49584,2.75497 1.25206,3.79762 3.08869,4.25859 2.26658,0.56887 10.37674,-1.87449 11.51549,-3.4693 0.275,-0.38513 1.7375,-0.69736 3.25,-0.69385 2.88978,0.007 3.59385,1.87351 1.78528,4.73355 -0.63598,1.00572 -0.44025,2.02285 0.61327,3.18699 0.85106,0.9404 1.24059,2.20622 0.86562,2.81292 -0.46871,0.75839 0.17415,0.88828 2.05721,0.41566 2.42141,-0.60774 2.67588,-0.44625 2.19493,1.39291 -0.47908,1.83201 -0.26293,1.97347 1.81077,1.18505 1.29514,-0.49241 4.15219,-1.81225 6.34902,-2.93299 4.74743,-2.42196 7.38061,-2.578 9.0739,-0.5377 0.68469,0.825 1.80969,1.5 2.5,1.5 0.69031,0 1.81531,-0.675 2.5,-1.5 1.76451,-2.12611 3.36582,-1.86062 4.52357,0.75 0.66078,1.49001 1.66975,2.12675 2.98712,1.88512 1.09412,-0.20069 3.56431,-0.46609 5.48931,-0.58979 4.74664,-0.30501 9.92434,-1.61389 10.57983,-2.67449 C 372.87584,215.39188 374.19982,215 375.522,215 c 2.1081,0 6.91819,-1.63572 15.478,-5.26344 1.375,-0.58274 2.93737,-0.95357 3.47194,-0.82406 0.53456,0.1295 0.30956,-0.58533 -0.5,-1.58852 -4.46483,-5.53267 -5.08845,-10.57764 -2.01786,-16.32398 l 1.87024,-3.5 0.70794,2.79657 c 0.38936,1.53811 0.93806,2.56645 1.21932,2.28518 0.28126,-0.28126 1.39076,-0.0408 2.46555,0.53445 2.6967,1.44324 3.29752,0.45665 1.38487,-2.27404 C 397.76345,188.21727 397.51482,186 399.05902,186 c 0.58246,0 0.85064,0.3375 0.59596,0.75 -0.25469,0.4125 0.62766,0.81545 1.96076,0.89544 3.27566,0.19657 9.09222,3.04056 13.58341,6.64159 2.57781,2.06688 4.24505,2.74076 5.5,2.22305 1.20654,-0.49775 1.38833,-0.89702 0.55085,-1.20984 -0.6875,-0.2568 -1.25678,-1.44191 -1.26506,-2.63357 -0.0201,-2.89238 -2.07339,-8.31897 -4.88735,-12.91667 C 413.47264,177.09502 412.10128,176 410.40122,176 409.08055,176 408,175.55 408,175 c 0,-0.55 -2.47119,-1 -5.49153,-1 -4.40852,0 -5.73785,-0.39443 -6.74054,-2 -0.68696,-1.1 -1.81578,-2 -2.50848,-2 -0.6927,0 -1.25945,-0.83886 -1.25945,-1.86414 0,-1.27412 1.35575,-2.38191 4.28343,-3.5 5.68443,-2.1709 6.38811,-2.06644 4.13719,0.61414 -1.03914,1.2375 -0.41676,0.9119 1.38308,-0.72356 2.20854,-2.00683 2.85367,-3.14471 1.98437,-3.5 -2.38152,-0.97334 -1.74629,-2.81849 1.49472,-4.34171 11.13401,-5.23278 14.88584,-6.69855 15.76115,-6.15758 1.21995,0.75398 0.27059,2.47841 -1.35296,2.45754 -0.73303,-0.009 -0.6142,-0.42322 0.30902,-1.07613 1.1726,-0.82928 1.19167,-0.97781 0.0874,-0.68048 -0.77694,0.20918 -1.52494,1.14559 -1.66221,2.08089 -0.13728,0.93531 0.0484,1.53309 0.41262,1.32842 0.36422,-0.20467 2.24495,-1.10837 4.17939,-2.00822 3.08483,-1.43497 3.4974,-2.05648 3.35632,-5.0561 -0.19696,-4.18748 -0.76665,-5.18111 -3.35929,-5.8591 -1.10933,-0.2901 -1.77468,-0.13544 -1.47857,0.34369 0.58555,0.94743 -6.39847,4.74162 -14.76561,8.02167 -6.28911,2.46544 -18.8912,8.84723 -31.27002,15.83538 -9.54053,5.38586 -11.5,5.99676 -11.5,3.58529 0,-0.825 -0.45,-1.5 -1,-1.5 -0.55,0 -0.97125,-0.7875 -0.93612,-1.75 0.0357,-0.97892 4.5089,-5.27495 10.152,-9.75 9.35067,-7.41519 10.18344,-8.36551 11.39199,-13 2.04224,-7.83148 1.88182,-8.36117 -3.19078,-10.53554 -5.52297,-2.36742 -5.79423,-2.38964 -5.03553,-0.41252 0.34149,0.88992 0.17385,1.29132 -0.39301,0.94098 -0.5437,-0.33602 -0.98855,-0.0999 -0.98855,0.52479 0,0.62466 -1.19594,-0.28556 -2.65765,-2.0227 -3.08372,-3.6648 -4.91669,-3.60488 -14.84235,0.48513 -3.3,1.35981 -6.5625,2.48307 -7.25,2.49612 -1.81746,0.0345 -1.53029,-3.00318 0.5,-5.28917 1.70169,-1.91601 1.68858,-1.93267 -0.47504,-0.60378 -1.74254,1.07026 -2.4878,1.10385 -3.43676,0.15489 -0.94895,-0.94895 -0.70052,-1.75586 1.14565,-3.72101 2.3121,-2.46111 2.12188,-5.02292 -0.20052,-2.70052 -1.84227,1.84227 -4.58142,1.39486 -5.29883,-0.86551 -0.57429,-1.80942 -1.17653,-1.96993 -5.15351,-1.37354 -4.2977,0.64448 -4.48789,0.56936 -4.16711,-1.64587 0.32791,-2.26449 1.07065,-2.67204 13.25882,-7.27535 1.8469,-0.69754 1.83558,-0.7872 -0.28732,-2.27413 -1.9185,-1.34377 -2.88739,-1.37436 -7.34497,-0.23192 -3.74382,0.95952 -5.23682,1.01043 -5.51098,0.18795 -0.27846,-0.83539 -1.2068,-0.83103 -3.57773,0.0168 -1.76094,0.62969 -3.44199,1.46417 -3.73568,1.8544 -0.82717,1.09904 -11.0847,5.44909 -14.71602,6.24082 -5.44263,1.18664 -4.14401,-2.12782 2,-5.1046 8.45749,-4.09766 11.20497,-5.68349 14.79389,-8.53893 l 3.38503,-2.69322 -2.96446,-1.147299 c -3.56027,-1.377892 -5.58601,-0.754564 -20.05488,6.170969 -5.54973,2.65639 -11.17473,4.94971 -12.5,5.09628 -4.04157,0.44697 -2.81205,-2.50054 2.09042,-5.01135 2.475,-1.26757 3.6,-2.01006 2.5,-1.64997 -1.1,0.36009 -2.74156,0.86912 -3.64792,1.13119 -0.90636,0.26207 -2.87452,-0.32721 -4.37369,-1.30951 -1.54096,-1.00967 -4.19336,-1.68716 -6.10208,-1.55861 C 282.81514,103.00775 282,102.6648 282,101.41475 c 0,-1.21315 0.65157,-1.52335 2.46974,-1.17578 1.35835,0.25966 2.2318,0.0871 1.94098,-0.383427 -0.8656,-1.400568 -4.15506,-0.988451 -10.90019,1.365617 -6.27217,2.189 -6.39484,2.19351 -8.47444,0.3115 -1.16057,-1.0503 -1.98098,-2.543149 -1.82311,-3.31743 0.35771,-1.754483 6.68875,-4.196119 13.28702,-5.124283 2.75,-0.386836 6.57202,-1.533744 8.49338,-2.548682 3.15661,-1.667444 3.30122,-1.920364 1.5,-2.623519 -3.29745,-1.287256 -6.7036,-1.013507 -7.90952,0.63568 -1.37137,1.875464 -4.19999,1.021486 -4.85003,-1.464255 -0.38469,-1.47106 -2.03853,-1.883296 -9.75217,-2.430825 -15.57614,-1.105626 -19.53486,-0.850422 -24.54176,1.582117 -4.49324,2.182982 -4.64954,2.192325 -5.99076,0.358088 -1.18172,-1.616085 -2.18117,-1.788878 -7.04238,-1.217539 -3.11587,0.36621 -6.919,1.558611 -8.45141,2.64978 C 215.25724,91.377141 190.64,102.99844 188.25,102.99925 186.91633,102.99969 186,102.38911 186,101.5 c 0,-0.825 -0.68783,-1.5 -1.52852,-1.5 -4.06305,0 -25.66509,13.26972 -37.47148,23.018 -7.69986,6.35762 -21.51972,20.43786 -27.00748,27.51635 -5.30667,6.84491 -17.17763,30.0835 -20.607732,40.3417 -1.540414,4.60683 -2.986634,7.81841 -3.213822,7.13685 -0.314693,-0.94408 -0.620785,-0.91456 -1.285251,0.12395 -0.520919,0.81415 -0.628248,-0.65056 -0.266497,-3.63685 1.641363,-13.54959 14.090232,-41.52981 24.692872,-55.5 13.28826,-17.5088 31.73465,-33.90173 48.53852,-43.135192 6.28704,-3.454633 7.2194,-5.112136 3.20599,-5.699439 -1.52163,-0.222666 -3.4002,0.74457 -5.61456,2.890804 -5.5505,5.379762 -35.81605,24.448747 -37.32446,23.516497 -0.53547,-0.33094 -1.25441,0.28308 -1.59764,1.3645 -1.08492,3.41827 -17.03739,18.9791 -18.51841,18.06378 -0.72609,-0.44875 -2.03597,-0.55489 -2.91085,-0.23587 -1.70454,0.62156 -16.215829,11.3994 -24.836484,18.44659 -2.885192,2.35858 -6.485192,4.74336 -8,5.2995 -4.25295,1.56143 -5.291352,2.45106 -12.24287,10.48883 -6.671881,7.71444 -12.083623,13.16069 -16.176248,16.27941 -1.439007,1.09657 -0.333181,0.80876 2.881678,-0.75 2.869216,-1.39118 5.906716,-2.52941 6.75,-2.52941 2.175415,0 1.919111,3.69399 -0.466756,6.72713 -1.1,1.39842 -2,3.35954 -2,4.35804 0,0.9985 -0.7875,2.27413 -1.75,2.83473 -0.9625,0.56061 -1.275601,1.03297 -0.695781,1.04969 2.610738,0.0753 14.834101,-8.83774 26.340405,-19.20692 6.260605,-5.64189 8.585779,-6.82146 9.288848,-4.71226 0.192576,0.57773 2.89549,-0.77227 6.006476,-3 C 96.433923,166.5792 98,166.12344 98,168.77749 c 0,2.08462 -2.153263,5.4942 -6.205756,9.82648 -1.59693,1.70719 -3.666424,4.45447 -4.598876,6.10508 -4.51351,7.98971 -6.566256,10.41513 -9.272967,10.95647 -4.390068,0.87801 -6.290688,3.7744 -6.992755,10.65637 -0.681887,6.68416 -0.317566,8.46603 1.383222,6.76524 1.869476,-1.86947 4.682044,-1.1924 5.869086,1.41287 0.801092,1.75821 1.931463,2.5 3.809581,2.5 1.825083,0 3.094074,-0.79144 4.008465,-2.5 0.801952,-1.49846 2.2154,-2.5 3.52819,-2.5 C 92.008944,212 101,204.54111 101,202.48311 c 0,-0.74081 1.30697,-2.27756 2.90437,-3.41502 C 106.94853,196.90046 111,196.2906 111,198 c 0,0.55 1.125,1 2.5,1 2.23749,0 2.5,0.40778 2.5,3.88337 0,5.76605 2.99004,6.1644 7.81101,1.04061 3.66429,-3.89444 6.18899,-5.01091 6.18899,-2.73689 0,0.6529 1.26212,-0.0221 2.80472,-1.5 1.54259,-1.4779 3.14974,-2.68709 3.57143,-2.68709 0.42169,0 1.44171,-0.675 2.26671,-1.5 2.0687,-2.0687 3.35714,-1.87681 3.35714,0.5 0,1.1 -0.3375,2.0008 -0.75,2.00179 -0.77198,0.002 -6.25,8.19965 -6.25,9.35307 0,0.35483 0.675,0.64514 1.5,0.64514 1.75544,0 1.91127,1.36302 0.46482,4.06574 -1.55811,2.91135 -0.54029,2.38607 5.12343,-2.64411 2.83525,-2.51811 5.4801,-4.20561 5.87745,-3.75 0.39735,0.4556 1.74799,3.42354 3.00143,6.59541 1.25344,3.17187 2.67501,6.01179 3.15905,6.31094 0.48403,0.29915 3.69116,0.90942 7.12694,1.35616 3.43578,0.44674 6.47188,0.85937 6.74688,0.91696 0.275,0.0576 6.45389,-4.30396 13.73087,-9.69233 z m 190.88414,-1.62359 C 370.52185,206.34062 370.57192,205 372.78439,205 c 1.51526,0 5.21561,4.54369 5.21561,6.40429 0,1.65811 -3.97874,0.27711 -5.38499,-1.86911 z M 108,217.30594 c 0,-0.98471 2.73273,-1.12586 12.35532,-0.63816 l 12.35533,0.6262 0.50284,-2.63044 c 0.44941,-2.35095 0.25228,-2.56756 -1.85532,-2.03859 -1.71756,0.43108 -2.35817,0.17096 -2.35817,-0.95752 0,-0.85217 0.4047,-1.79952 0.89934,-2.10522 0.49464,-0.3057 1.84443,-2.15763 2.99954,-4.1154 l 2.1002,-3.55958 -2.22205,1.55639 C 131.55491,204.29963 129.73548,205 128.73385,205 c -1.00163,0 -3.0344,1.125 -4.51728,2.5 -1.64915,1.52918 -3.86509,2.49405 -5.70635,2.48469 -4.78174,-0.0243 -5.86672,-1.21582 -5.12232,-5.62518 l 0.65157,-3.85951 -2.41336,2.88302 c -2.40676,2.87512 -2.41652,2.87712 -3.56598,0.72933 -0.63394,-1.18453 -0.88025,-2.59438 -0.54736,-3.13302 0.3329,-0.53863 0.14932,-0.97933 -0.40795,-0.97933 -0.55726,0 -2.63049,2.1375 -4.60717,4.75 -3.740214,4.9433 -9.980553,10.25 -12.053345,10.25 -0.659678,0 -1.728412,0.6374 -2.374964,1.41645 -1.577681,1.90099 0.146931,2.23903 11.180659,2.19152 6.36646,-0.0274 8.75,-0.38209 8.75,-1.30203 z m 42.95481,0.94406 c -0.0249,-0.4125 -1.05526,-2.67969 -2.2898,-5.03819 l -2.24462,-4.28819 -2.4602,2.66569 c -1.3531,1.46613 -3.81019,3.2657 -5.46019,3.99905 -2.56422,1.13967 -2.68174,1.33904 -0.80902,1.3725 1.20504,0.0215 2.4691,0.48914 2.80902,1.03914 0.71028,1.14926 10.52313,1.38391 10.45481,0.25 z M 278,217.56809 c 0,-0.78754 -1.45105,-2.46514 -3.22454,-3.72798 l -3.22455,-2.29608 2.97455,3.72796 c 3.35227,4.20135 3.47454,4.28215 3.47454,2.2961 z M 265,210.5 c -0.68469,-0.825 -1.7258,-1.5 -2.31357,-1.5 -0.58778,0 -0.19518,0.66069 0.87244,1.4682 2.50847,1.89731 2.99833,1.90812 1.44113,0.0318 z m 3,-5.57181 c 0,-1.04987 -3.98192,-3.2796 -4.65493,-2.60659 -0.93767,0.93766 2.02868,4.47221 3.33316,3.97163 C 267.40521,206.01427 268,205.4 268,204.92819 Z m 0.51308,-5.18081 c -1.14358,-0.63998 -2.08607,-0.57134 -2.85946,0.20824 -0.87488,0.8819 -0.69115,0.98669 0.76042,0.43369 1.32718,-0.50561 1.69452,-0.37398 1.19807,0.4293 -0.47793,0.77331 -0.1636,0.94651 0.94541,0.52094 1.53718,-0.58987 1.53386,-0.70891 -0.0444,-1.59217 z m -68.09338,-1.5288 1.9197,-2.71858 -2.9197,2.5 c -1.60584,1.375 -3.1072,2.6125 -3.33637,2.75 -0.22916,0.1375 0.22084,0.23586 1,0.21858 0.77917,-0.0173 2.28053,-1.25479 3.33637,-2.75 z M 296,200.65499 c 0,-0.18976 -1.0125,-1.20226 -2.25,-2.25 L 291.5,196.5 l 1.90499,2.25 C 295.19521,200.86444 296,201.45524 296,200.65499 Z M 262.5,198 c 0.33992,-0.55 0.14148,-1 -0.44098,-1 -0.58246,0 -1.05902,0.45 -1.05902,1 0,0.55 0.19844,1 0.44098,1 0.24254,0 0.7191,-0.45 1.05902,-1 z m -21.3607,-1.89274 c -1.24101,-0.7863 -5.1393,-0.39992 -5.1393,0.50937 0,0.21085 1.4625,0.37648 3.25,0.36806 2.20964,-0.0104 2.81443,-0.29129 1.8893,-0.87743 z m 12.68528,-0.59851 c 0.30469,-0.30469 -0.4196,-0.40539 -1.60953,-0.2238 -1.18993,0.1816 -2.461,0.62766 -2.82459,0.99125 -0.36359,0.3636 0.3607,0.4643 1.60954,0.2238 1.24884,-0.2405 2.5199,-0.68657 2.82458,-0.99125 z M 96.683114,192.8125 c -0.319226,-0.79773 -0.556183,-0.56078 -0.604167,0.60417 -0.04342,1.05416 0.192928,1.64479 0.52522,1.3125 0.332291,-0.3323 0.367818,-1.1948 0.07895,-1.91667 z m 148.733436,-4.45563 c 0.90561,-2.35999 0.49752,-2.39682 -3.41655,-0.30829 l -3.5,1.86759 3.14301,0.0419 c 2.02109,0.027 3.36808,-0.54461 3.77354,-1.60121 z M 258,188 c 1.96696,-0.62993 1.38061,-0.82189 -2.75,-0.90032 -2.89979,-0.0551 -5.25,0.34798 -5.25,0.90032 0,1.16054 4.37622,1.16054 8,0 z M 118.26379,149 c 4.79964,-6.41484 21.01759,-22.88433 28.23621,-28.67414 12.21212,-9.79492 35.62295,-23.614159 47.5,-28.038896 11.15888,-4.157184 23.78833,-7.438012 34.5,-8.962269 20.41277,-2.904714 53.67901,-0.358035 76.46646,5.853848 15.00949,4.091603 35.17195,13.608557 47.03354,22.200467 0.89736,0.65 0.77293,0.23178 -0.30971,-1.04096 -0.99534,-1.17012 -4.59534,-3.83195 -8,-5.91518 C 340.28563,102.33964 337.275,100.34081 337,99.981027 334.61495,96.860628 312.52817,87.724232 295.83571,82.95304 278.45019,77.983754 268.34037,76.633763 248.5,76.63218 c -14.65257,-0.0012 -20.00134,0.409147 -28.76174,2.206379 -16.50906,3.386902 -37.61769,11.331462 -51.38499,19.33954 -20.2827,11.797921 -40.92413,31.452771 -53.3224,50.773791 -3.06974,4.78378 -14.05019,28.0938 -14.01272,29.74713 0.01,0.44054 2.96843,-4.82402 6.57433,-11.69902 3.60589,-6.875 8.40799,-14.975 10.67131,-18 z M 111.5,132 c 0.99549,-1.1 1.58498,-2 1.30998,-2 -0.275,0 -1.31449,0.9 -2.30998,2 -0.99549,1.1 -1.58498,2 -1.30998,2 0.275,0 1.31449,-0.9 2.30998,-2 z m 249.84236,-3.94576 c 4.115,-1.4073 4.61462,-1.84505 3.32621,-2.91434 -1.23732,-1.02688 -2.23215,-0.89303 -5.40926,0.72781 -4.35935,2.22397 -8.39399,6.18686 -4.75931,4.67466 1.1,-0.45765 4.17906,-1.57731 6.84236,-2.48813 z m -3.85074,-8.96834 c -1.13548,-1.15413 -1.6742,-1.17926 -2.93042,-0.13669 -0.84655,0.70257 -1.29308,1.67559 -0.9923,2.16227 0.30078,0.48668 -0.71667,2.01479 -2.26101,3.39582 -2.23457,1.99825 -1.74788,1.84549 2.38354,-0.74818 4.45244,-2.79518 4.99339,-3.46042 3.80019,-4.67322 z m -233.5,-1.3359 c 4.0554,-4.5375 5.67636,-6.675 3.60213,-4.75 -3.85871,3.58108 -12.10228,13 -11.37779,13 0.22121,0 3.72026,-3.7125 7.77566,-8.25 z m 227.25202,-1.24304 c 2.97431,-2.02368 0.80012,-2.42741 -3.8303,-0.71126 -4.13374,1.53207 -5.31688,2.96743 -3.74317,4.54114 0.60502,0.60501 2.35863,-0.28179 7.57347,-3.82988 z m -6.32902,-1.08824 c 1.12835,-1.12836 -0.74075,-0.98269 -3.41462,0.26612 l -3,1.40112 2.99795,-0.62426 c 1.64887,-0.34335 3.18637,-0.81269 3.41667,-1.04298 z M 133.12756,112.25 c 1.24387,-1.58606 1.2085,-1.62143 -0.37756,-0.37756 -1.66575,1.30637 -2.19548,2.12756 -1.37244,2.12756 0.20765,0 0.99515,-0.7875 1.75,-1.75 z M 350,113 c 0,-0.55 -0.45,-1 -1,-1 -0.55,0 -1,0.45 -1,1 0,0.55 0.45,1 1,1 0.55,0 1,-0.45 1,-1 z m -210,-6.17403 c 0,-0.5192 0.46115,-0.659 1.02478,-0.31066 0.56362,0.34834 0.90112,0.0374 0.75,-0.69098 -0.15788,-0.76091 0.51512,-1.25768 1.58189,-1.16766 1.28409,0.10835 1.53629,-0.16371 0.81779,-0.88221 -1.11564,-1.11564 -5.92029,2.16498 -8.09013,5.52396 -1.10429,1.70946 -1.03618,1.71614 1.37696,0.13499 C 138.85758,108.51852 140,107.34518 140,106.82597 Z m 217.72917,2.56986 c -0.33229,-0.33229 -1.1948,-0.36781 -1.91667,-0.0789 -0.79773,0.31922 -0.56078,0.55618 0.60417,0.60416 1.05416,0.0434 1.64479,-0.19292 1.3125,-0.52522 z M 357,107 c 1.66667,-0.53376 1.91667,-0.83387 0.75,-0.90032 -0.9625,-0.0548 -1.75,-0.58 -1.75,-1.16707 0,-0.64517 -0.89,-0.79381 -2.25,-0.37577 -2.88973,0.88826 -3.08549,1.09132 -2.29112,2.37663 0.74499,1.20541 1.94016,1.21976 5.54112,0.0665 z m -6,-4 c 0,-0.55 -0.7875,-0.99311 -1.75,-0.98469 -1.49555,0.0131 -1.5319,0.15626 -0.25,0.98469 1.88721,1.21961 2,1.21961 2,0 z m -46.10092,-3.675457 c 4.95114,-2.021501 8.80817,-3.989211 8.57116,-4.372689 -0.237,-0.383478 -4.82726,-1.92495 -10.20057,-3.425494 L 293.5,88.798099 l -5.35049,3.60095 c -3.68856,2.482451 -6.48407,3.605628 -9,3.616007 -2.00723,0.0083 -5.44951,0.647757 -7.64951,1.421057 -3.16659,1.113055 -3.62753,1.551931 -2.21229,2.106401 0.98323,0.385221 3.69828,-0.02925 6.03343,-0.921056 5.33007,-2.035575 12.26368,-2.145782 13.00776,-0.206754 0.48014,1.251248 4.99389,4.194356 6.8696,4.479216 0.38418,0.0583 4.74944,-1.54788 9.70058,-3.569377 z M 150,98.406429 c 0,-0.199953 -1.125,0.149033 -2.5,0.775525 -1.375,0.626492 -2.5,1.527216 -2.5,2.001616 0,0.47439 1.125,0.12541 2.5,-0.77553 1.375,-0.900932 2.5,-1.801658 2.5,-2.001611 z m 10,-4.02613 c 0,0.419407 0.675,0.08756 1.5,-0.737442 2.32587,-2.325865 1.7704,-3.050048 -0.96482,-1.257867 -3.09961,2.030945 -4.1574,2.069671 -2.51618,0.09212 1.05678,-1.273347 0.99492,-1.419678 -0.37756,-0.893011 -1.85882,0.713296 -2.13252,1.994367 -0.62513,2.925984 0.55897,0.345464 0.7506,1.159521 0.42584,1.809017 -0.32475,0.649496 0.11791,0.307394 0.98369,-0.760228 C 159.29163,94.491249 160,93.960892 160,94.380299 Z M 344.73813,93 c 10.96723,-6.153326 7.03192,-9.849511 -5.25044,-4.931414 C 335.46121,89.680864 331.67548,91 331.07494,91 c -1.63348,0 0.90081,3.664121 3.37623,4.881426 2.6693,1.312644 2.95381,1.232951 10.28696,-2.881426 z M 203,92.393011 C 203,92.176855 202.325,92 201.5,92 c -0.825,0 -1.5,0.435877 -1.5,0.968615 0,0.532739 0.675,0.709594 1.5,0.393011 0.825,-0.316582 1.5,-0.752459 1.5,-0.968615 z m -38,-5.043205 c 0,-0.723379 -3.85397,1.604903 -4.56743,2.759298 -0.37335,0.604092 0.50159,0.324918 1.94431,-0.620387 C 163.81959,88.543412 165,87.580902 165,87.349806 Z m 4.43071,-3.252427 c -0.26308,-0.263082 -1.25511,0.332672 -2.20452,1.323898 -1.64929,1.72194 -1.62798,1.74325 0.47833,0.478332 1.21249,-0.728145 1.98927,-1.539148 1.72619,-1.80223 z M 286.36163,76.5 C 286.00647,75.574486 284.48653,75 282.39301,75 280.14403,75 279,74.525801 279,73.593601 c 0,-1.145253 -0.6499,-1.206941 -3.5,-0.332219 -3.69969,1.135466 -4.69394,2.712851 -1.75,2.776386 2.75905,0.05955 9.70681,1.130226 10.16667,1.566729 1.11762,1.060852 2.95702,0.229912 2.44496,-1.104497 z m -95.86871,-3.488546 c 0.35034,-0.56686 -0.0511,-0.734507 -0.94098,-0.393011 C 187.81952,73.283234 187.50255,74 188.94098,74 c 0.51754,0 1.21592,-0.444846 1.55194,-0.988546 z M 195,70.924396 c 0,-0.473895 -0.675,-0.602605 -1.5,-0.286022 -0.825,0.316582 -1.5,0.963335 -1.5,1.43723 0,0.473895 0.675,0.602605 1.5,0.286022 0.825,-0.316582 1.5,-0.963335 1.5,-1.43723 z m 5.52646,-2.731268 c -0.30789,-0.307887 -1.11479,-6.34e-4 -1.79313,0.682784 -0.98026,0.987616 -0.8654,1.10248 0.5598,0.559795 0.98622,-0.375531 1.54122,-0.934692 1.23333,-1.242579 z M 204,67 c 0,-0.55 -0.19844,-1 -0.44098,-1 -0.24254,0 -0.7191,0.45 -1.05902,1 -0.33992,0.55 -0.14148,1 0.44098,1 C 203.52344,68 204,67.55 204,67 Z m -13.55764,-0.906741 c 0.30822,-0.498708 -0.34022,-0.671224 -1.44098,-0.383369 C 186.66639,66.320503 186.37123,67 188.44098,67 c 0.79254,0 1.69316,-0.408034 2.00138,-0.906741 z M 210,65 c 0,-0.55 -0.19844,-1 -0.44098,-1 -0.24254,0 -0.7191,0.45 -1.05902,1 -0.33992,0.55 -0.14148,1 0.44098,1 C 209.52344,66 210,65.55 210,65 Z m -9.5,-3 c 0.33992,-0.55 0.14148,-1 -0.44098,-1 C 199.47656,61 199,61.45 199,62 c 0,0.55 0.19844,1 0.44098,1 0.24254,0 0.7191,-0.45 1.05902,-1 z m 4.94236,-1.906741 c 0.30822,-0.498708 -0.34022,-0.671224 -1.44098,-0.383369 C 201.66639,60.320503 201.37123,61 203.44098,61 c 0.79254,0 1.69316,-0.408034 2.00138,-0.906741 z m 23.28681,-0.697426 c -0.3323,-0.332291 -1.1948,-0.367818 -1.91667,-0.07895 -0.79773,0.319226 -0.56078,0.556183 0.60417,0.604167 1.05416,0.04342 1.64479,-0.192928 1.3125,-0.52522 z M 243.5,56 c 0.731,-1.182783 -0.24752,-1.182783 -3,0 -1.92824,0.828591 -1.92138,0.861951 0.19098,0.929715 C 241.89602,56.968372 243.16008,56.55 243.5,56 Z m 5.5,-1 c 1.29269,-0.835399 1.26629,-0.971491 -0.19098,-0.984687 C 247.87898,54.006891 246.83992,54.45 246.5,55 c -0.78218,1.265597 0.54163,1.265597 2.5,0 z m 6.52699,-0.956326 C 255.20192,53.517695 254.27536,53.34084 253.46797,53.650663 251.40086,54.443889 251.64445,55 254.05902,55 c 1.13246,0 1.79305,-0.430347 1.46797,-0.956326 z M 264.25,52.337719 c -0.6875,-0.277412 -1.8125,-0.277412 -2.5,0 -0.6875,0.277413 -0.125,0.504386 1.25,0.504386 1.375,0 1.9375,-0.226973 1.25,-0.504386 z M 275,52.559017 c 0,-0.242541 -0.45,-0.719098 -1,-1.059017 -0.55,-0.339919 -1,-0.141476 -1,0.440983 C 273,52.523442 273.45,53 274,53 c 0.55,0 1,-0.198442 1,-0.440983 z m 38.72917,-1.163184 c -0.33229,-0.332291 -1.1948,-0.367818 -1.91667,-0.07895 -0.79773,0.319226 -0.56078,0.556183 0.60417,0.604167 1.05416,0.04342 1.64479,-0.192928 1.3125,-0.52522 z m -12.93998,-1.133652 c -3.14095,-0.197808 -8.54095,-0.199425 -12,-0.0036 -3.45906,0.19583 -0.88919,0.357673 5.71081,0.35965 6.6,0.002 9.43013,-0.158247 6.28919,-0.356055 z M 150,403 c -1.375,-1.07554 -2.05,-1.95553 -1.5,-1.95553 0.55,0 2.125,0.87999 3.5,1.95553 1.375,1.07554 2.05,1.95553 1.5,1.95553 -0.55,0 -2.125,-0.87999 -3.5,-1.95553 z m 207.5,-17 c 0.33992,-0.55 1.06803,-1 1.61803,-1 0.55,0 0.72189,0.45 0.38197,1 -0.33992,0.55 -1.06803,1 -1.61803,1 -0.55,0 -0.72189,-0.45 -0.38197,-1 z M 213.86315,208.19718 c 0.961,-0.67331 1.02738,-1.11617 0.225,-1.50113 -0.73603,-0.35312 -0.74951,-0.47539 -0.0382,-0.34605 1.53703,0.27946 1.37664,2.02669 -0.225,2.45113 -1.04582,0.27715 -1.03778,0.14989 0.0382,-0.60395 z M 345.54271,99.069098 c -0.68308,-1.105231 0.8944,-2.298652 1.81781,-1.375245 0.95079,0.950786 0.77359,2.306147 -0.3015,2.306147 -0.51754,0 -1.19988,-0.418906 -1.51631,-0.930902 z"
       id="path117" />
    <path
       d="m 162.16057,219.91661 c -2.96107,-0.43345 -5.99113,-0.9338 -6.73346,-1.11188 -1.32286,-0.31735 -1.37153,-0.36721 -2.44806,-2.50834 -0.60411,-1.2015 -1.47646,-3.13634 -1.93858,-4.29965 -1.90209,-4.78823 -2.80181,-6.48122 -3.4444,-6.48122 -0.79862,0 -3.15678,1.67208 -6.92298,4.90879 -4.3475,3.7363 -4.56632,3.80804 -3.32144,1.08886 0.42481,-0.9279 0.67575,-1.91257 0.62361,-2.44701 -0.0786,-0.80595 -0.20847,-0.92367 -1.31413,-1.19143 -0.6748,-0.16341 -1.27816,-0.45086 -1.34079,-0.63878 -0.21627,-0.64878 3.84265,-6.92185 5.64469,-8.72389 1.27699,-1.27699 1.58624,-3.01376 0.72584,-4.07631 -0.49571,-0.61218 -0.62511,-0.64562 -1.30307,-0.33672 -0.41398,0.18862 -1.33287,0.82746 -2.04198,1.41964 -0.7091,0.59218 -1.72581,1.26052 -2.25935,1.48521 -0.53353,0.22469 -1.84312,1.17817 -2.9102,2.11884 -2.63611,2.32385 -2.85049,2.42849 -3.18312,1.55362 -0.19266,-0.50674 -0.47122,-0.70406 -0.99395,-0.70406 -0.9471,0 -1.94514,0.71526 -4.9315,3.53425 -3.6535,3.44872 -5.30985,4.34386 -6.49797,3.51166 -0.98897,-0.6927 -1.23952,-1.48177 -1.43301,-4.51292 -0.21077,-3.30196 -0.43479,-3.64163 -2.40171,-3.64163 -1.46469,0 -2.39634,-0.40622 -2.74304,-1.19603 -0.22733,-0.51788 -0.48646,-0.60489 -1.7902,-0.60112 -1.93198,0.006 -3.72089,0.68919 -5.79058,2.21281 -1.29719,0.95494 -1.8008,1.55915 -2.46387,2.95605 -1.66681,3.51151 -9.149609,9.6516 -11.76747,9.65593 -1.031931,0.002 -2.309129,0.97288 -3.358453,2.55376 -2.193515,3.30466 -5.478814,3.30503 -7.486006,8.3e-4 -1.605302,-2.64262 -3.530676,-3.22472 -5.745671,-1.73711 -0.822524,0.55241 -1.309149,0.72699 -1.496807,0.53697 -0.406678,-0.41178 -0.233939,-5.96774 0.277786,-8.93469 0.899975,-5.218 2.696288,-7.52946 6.618996,-8.51721 2.606516,-0.65633 4.4475,-2.65691 8.014745,-8.70958 2.373465,-4.02714 3.343778,-5.37156 6.431383,-8.91102 2.838285,-3.25365 4.99446,-6.37193 5.389501,-7.79436 0.382816,-1.37841 0.365106,-2.64854 -0.04262,-3.05626 -0.786081,-0.78609 -2.210028,-0.17112 -6.596452,2.84884 -3.403772,2.34344 -5.8215,3.74762 -6.452653,3.74762 -0.246868,0 -0.548589,-0.17521 -0.670493,-0.38936 -0.231741,-0.4071 -0.656089,-0.53005 -1.639335,-0.47496 -0.907508,0.0508 -3.322392,1.81847 -7.635787,5.58921 -12.462021,10.89422 -22.39987,18.26543 -25.591754,18.9822 l -0.831486,0.18672 0.881874,-0.65256 c 1.109669,-0.82112 1.58857,-1.65082 2.022629,-3.5042 0.196426,-0.83871 0.92082,-2.3505 1.693221,-3.53371 1.624478,-2.48844 2.326734,-4.45431 2.073464,-5.80435 -0.374222,-1.99478 -1.677136,-1.90961 -7.00198,0.45772 -1.73787,0.77262 -3.214784,1.34975 -3.28203,1.2825 -0.06725,-0.0673 1.180874,-1.28621 2.773602,-2.7088 3.183946,-2.84384 6.853286,-6.68616 12.049714,-12.61777 1.869632,-2.13415 4.539782,-5.04586 5.933665,-6.47048 2.321288,-2.37247 2.802274,-2.71944 5.721695,-4.12745 3.948946,-1.90455 5.749836,-3.11716 12.056541,-8.11811 5.608758,-4.44751 15.380501,-11.79722 19.072931,-14.34551 2.72325,-1.87941 3.62501,-2.18931 5.02562,-1.72706 0.73091,0.24122 1.10822,0.23633 1.59464,-0.0207 1.57832,-0.83394 4.33253,-3.22554 8.95204,-7.77348 5.11361,-5.03437 7.50362,-7.80695 8.73069,-10.12825 0.61164,-1.15704 0.81397,-1.32474 1.64893,-1.36674 1.67757,-0.0844 9.92621,-4.7438 20.82387,-11.76285 7.84081,-5.050168 12.89731,-8.664717 16.59187,-11.860407 2.52423,-2.183384 4.06778,-2.927743 5.55137,-2.677091 0.58545,0.09891 1.28928,0.344239 1.56408,0.545175 1.17277,0.857546 -0.005,1.80581 -8.55676,6.890166 -14.79362,8.795247 -30.70135,23.005187 -43.02844,38.436117 -10.04728,12.57709 -21.24187,35.39244 -25.503934,51.9788 -0.982778,3.8246 -1.73831,9.1342 -1.41839,9.9679 0.178182,0.46433 0.234662,0.45674 0.841253,-0.11313 0.579958,-0.54484 0.669412,-0.56093 0.827533,-0.14888 0.429288,1.11871 1.022794,-0.0962 4.067968,-8.32693 2.01754,-5.4532 4.17766,-10.23768 8.44842,-18.71253 3.89286,-7.72494 7.43546,-14.08655 9.93794,-17.84602 3.90905,-5.87254 17.6167,-20.32928 26.77405,-28.23718 10.40759,-8.98757 31.90032,-22.74976 38.05203,-24.36543 1.59884,-0.41991 2.1376,-0.17326 2.5878,1.18474 0.22831,0.68866 0.57229,1.04281 1.27359,1.31121 0.86571,0.33133 1.17101,0.29716 3.08497,-0.34534 4.97123,-1.66879 21.96378,-9.782163 28.93874,-13.817286 3.35681,-1.941964 5.72768,-2.740211 9.7441,-3.280738 1.27001,-0.170916 2.92614,-0.251468 3.6803,-0.179004 1.18345,0.113715 1.55542,0.313221 2.71683,1.457164 1.64074,1.616068 1.96416,1.602956 5.991,-0.242882 4.33162,-1.98554 5.6982,-2.232612 12.30092,-2.223947 8.14035,0.01068 18.81115,0.855198 20.69427,1.6378 0.61843,0.257012 1.0405,0.73374 1.43081,1.616096 1.00634,2.275011 3.18971,2.788072 4.98037,1.170318 1.38291,-1.249377 3.07232,-1.679029 5.1163,-1.301178 1.84243,0.340591 3.53213,1.0082 3.53213,1.395559 0,0.153583 -1.15368,0.848782 -2.56374,1.544886 -2.56115,1.264362 -5.59274,2.13248 -10.60144,3.035801 -5.01779,0.904959 -10.13431,2.944071 -10.92264,4.353047 -0.37669,0.673256 -0.35425,0.837925 0.28297,2.076156 0.9371,1.820968 2.70538,3.151568 4.18822,3.151568 0.62008,0 2.94893,-0.6136 5.17524,-1.36355 7.15501,-2.410236 10.04214,-2.89707 11.03536,-1.860803 0.48243,0.503343 0.44918,0.512363 -1.23024,0.333393 -2.07842,-0.221493 -2.84891,0.0952 -2.84285,1.16845 0.008,1.42662 0.29784,1.56848 3.58943,1.75714 2.8799,0.16506 3.2207,0.25009 5.76191,1.43755 3.35354,1.56707 3.83145,1.66863 5.49535,1.16787 0.73544,-0.22133 1.38296,-0.35664 1.43892,-0.30067 0.056,0.056 -0.68432,0.5191 -1.64507,1.02919 -2.47775,1.31551 -4.18096,2.99936 -4.06439,4.01817 0.0861,0.75289 0.16321,0.79336 1.66037,0.87195 1.32617,0.0696 2.06731,-0.11426 4.77162,-1.18384 1.76087,-0.69644 5.23257,-2.2131 7.71489,-3.37035 9.29296,-4.33234 11.63192,-5.36981 13.95357,-6.18925 3.0987,-1.093705 5.07373,-1.108025 7.67026,-0.0556 l 1.86663,0.75658 -2.78974,2.17914 c -3.52883,2.75644 -5.97503,4.22756 -12.73055,7.65603 -5.92299,3.00596 -7.75288,4.37373 -7.75288,5.79498 0,0.99547 0.87809,1.25715 2.9102,0.86726 3.20742,-0.61539 11.53379,-3.9412 14.31577,-5.71816 1.97683,-1.26268 4.50336,-2.45261 6.1587,-2.90059 1.29793,-0.35125 1.36927,-0.3403 1.83897,0.28238 0.64468,0.85468 2.19421,0.82271 6.09565,-0.12578 1.60061,-0.38913 3.38287,-0.70767 3.96059,-0.70787 1.11849,-3.9e-4 2.59218,0.6554 3.91832,1.74359 l 0.81125,0.66572 -3.44429,1.32274 c -6.22383,2.39018 -9.27735,3.74403 -10.22084,4.53169 -0.80923,0.67558 -0.94648,0.97974 -1.06006,2.34921 -0.1089,1.3132 -0.0509,1.60368 0.35105,1.75792 0.26486,0.10162 2.08321,0.0215 4.04083,-0.17813 4.0299,-0.41089 4.03151,-0.4104 4.95931,1.50621 1.09457,2.26106 3.31447,2.47084 5.64357,0.53335 2.17702,-1.81097 1.60438,0.30986 -0.95915,3.55239 -1.18093,1.49369 -1.23306,2.05172 -0.28068,3.0041 0.97777,0.97776 1.36142,1.0153 2.81225,0.27515 1.40272,-0.71561 1.61516,-0.69948 0.91223,0.0693 -1.41686,1.54954 -2.12841,4.21818 -1.33598,5.0106 0.25485,0.25484 0.68049,0.46335 0.94587,0.46335 0.65953,0 4.45269,-1.31252 8.62422,-2.98418 6.19341,-2.48187 8.73268,-3.01875 10.71433,-2.26532 0.42492,0.16155 1.67972,1.2217 2.78842,2.35588 2.00618,2.05225 2.65346,2.41924 2.94177,1.6679 0.097,-0.25266 0.37211,-0.33648 0.76624,-0.23341 0.58714,0.15354 0.60693,0.10243 0.438,-1.13017 -0.0973,-0.71003 -0.11228,-1.29097 -0.0332,-1.29097 0.41128,0 5.40853,2.06582 6.83001,2.82345 1.78135,0.94946 2.43917,1.84928 2.43917,3.33659 0,1.31685 -1.53609,7.42977 -2.26223,9.00272 -0.84404,1.82823 -4.08827,4.98287 -10.06959,9.79144 -2.74285,2.20507 -6.21184,5.2184 -7.70887,6.6963 -2.59454,2.56137 -2.7178,2.73632 -2.63492,3.73972 0.0686,0.83119 0.24689,1.12894 0.84742,1.41536 0.70604,0.33676 0.88625,0.68604 1.10194,2.13566 0.0641,0.43095 0.32868,0.57249 1.18872,0.63593 1.37292,0.10127 3.78686,-1.05503 13.71713,-6.57063 9.01178,-5.00545 22.73032,-11.86711 28.27051,-14.14019 8.65623,-3.55155 14.41241,-6.68249 14.41241,-7.8393 0,-0.50343 0.12703,-0.55085 1.11921,-0.41777 2.3709,0.31801 3.2258,1.57275 3.49809,5.1342 0.26194,3.42646 0.0133,3.7856 -4.05682,5.86071 -1.85854,0.94752 -3.44587,1.65602 -3.52747,1.57443 -0.0816,-0.0816 -0.0505,-0.62186 0.069,-1.20062 0.12933,-0.62616 0.26328,-0.85587 0.33074,-0.56724 0.20906,0.89421 1.98825,0.45819 2.57062,-0.62997 0.20926,-0.39103 0.20288,-0.71682 -0.0222,-1.13751 -0.64155,-1.19873 -3.3668,-0.33792 -12.86918,4.06494 -6.46835,2.99706 -7.59169,4.18736 -5.5444,5.87491 l 0.9689,0.79865 -0.83334,1.13317 c -0.9837,1.33764 -1.65879,1.70565 -1.65879,0.90429 0,-0.79447 -1.17882,-0.71019 -3.85188,0.2754 -4.35178,1.60455 -5.84878,2.67276 -5.84878,4.17351 0,1.22023 0.40887,1.83613 1.34298,2.02295 0.52196,0.1044 1.26719,0.69877 2.10352,1.67769 0.71234,0.83381 1.6938,1.65729 2.18099,1.82995 0.4872,0.17266 2.1954,0.37473 3.79601,0.44906 5.0648,0.23516 5.82569,0.3666 6.53162,1.12831 0.45167,0.48736 1.07196,0.74985 2.11212,0.8938 0.80997,0.11209 1.74055,0.34942 2.06798,0.52741 2.69659,1.46582 7.07658,10.34098 7.82487,15.85545 0.22669,1.67062 0.41848,2.19647 0.97694,2.67853 0.61491,0.53081 0.64562,0.64068 0.26687,0.95502 -0.5608,0.46542 -2.03076,0.41056 -3.03982,-0.11346 -0.44208,-0.22956 -2.10693,-1.37142 -3.6997,-2.53745 -4.55801,-3.33687 -9.20285,-5.45725 -13.38733,-6.11136 -0.77838,-0.12168 -1.03936,-0.2944 -1.03936,-0.68788 0,-0.69422 -0.42661,-0.92743 -1.29692,-0.709 -0.66655,0.1673 -0.70294,0.26333 -0.58093,1.533 0.0902,0.93926 0.48301,1.93854 1.28115,3.25952 1.7248,2.85461 1.53861,3.34981 -0.86051,2.28857 -0.68777,-0.30424 -1.65496,-0.59743 -2.1493,-0.65155 -1.01719,-0.11136 -1.36491,-0.70502 -1.95355,-3.33542 -0.1918,-0.85659 -0.45236,-1.55743 -0.57916,-1.55743 -0.39523,0 -3.0028,5.4813 -3.46402,7.28163 -0.56971,2.2237 -0.38207,5.33323 0.45335,7.51318 0.34349,0.8963 1.35471,2.70478 2.24717,4.01885 l 1.62268,2.38922 -1.17101,0.18027 c -0.64404,0.0992 -3.66544,1.17058 -6.71422,2.38096 -6.40967,2.54466 -8.64285,3.25415 -11.43944,3.63437 -1.4666,0.1994 -2.35934,0.50155 -3.27625,1.10889 -1.63733,1.08452 -5.07015,1.88449 -10.29811,2.39981 -2.24851,0.22164 -4.52473,0.46865 -5.05826,0.54891 -1.38113,0.20778 -2.18662,-0.32355 -3.24973,-2.14366 -1.39562,-2.38932 -2.41347,-2.45792 -4.81554,-0.32452 -1.82356,1.61957 -2.55793,1.61777 -4.39158,-0.0108 -2.53916,-2.25516 -4.1778,-2.07419 -11.10352,1.22625 -2.57824,1.22866 -5.06951,2.31028 -5.53611,2.4036 l -0.84837,0.16968 0.075,-1.62947 c 0.0852,-1.85084 0.19718,-1.79662 -2.79725,-1.35381 -1.42165,0.21024 -1.47849,0.1948 -1.3043,-0.35402 0.20568,-0.64805 -0.38032,-2.23272 -1.22076,-3.30115 -0.70854,-0.90077 -0.71055,-1.75544 -0.007,-3.13378 0.74229,-1.45501 0.72938,-3.08182 -0.0299,-3.76802 -0.461,-0.41663 -1.00675,-0.52799 -2.58756,-0.52799 -1.72476,0 -2.1542,0.10419 -3.08818,0.74925 -3.32736,2.29804 -10.01993,3.92224 -12.15439,2.94971 -1.03365,-0.47096 -1.45791,-1.28912 -2.23428,-4.30869 -0.38411,-1.49392 -1.0736,-3.43958 -1.53221,-4.32369 -0.65691,-1.26641 -0.85318,-2.03793 -0.92504,-3.63618 -0.10257,-2.28108 -0.91843,-4.34303 -1.99843,-5.05067 -0.76191,-0.49923 -1.69963,-0.27172 -4.35368,1.05629 -1.65761,0.82942 -2.88174,1.02493 -4.07861,0.65141 -0.3811,-0.11893 -2.37666,-0.93287 -4.43459,-1.80875 -9.58299,-4.07867 -18.53585,-6.1781 -28.40909,-6.66188 -5.66866,-0.27775 -6.04594,-0.34954 -6.64537,-1.26438 -0.74608,-1.13866 -2.94372,-0.7766 -8.63324,1.42235 -6.14974,2.37682 -10.85043,5.1268 -14.48344,8.47304 -1.12523,1.0364 -2.45007,2.07617 -2.94409,2.3106 -0.65341,0.31007 -0.94747,0.6725 -1.07894,1.32983 -0.30613,1.53068 -4.6617,5.23408 -5.3483,4.54749 -0.0959,-0.0959 -0.0191,-1.04312 0.17067,-2.10496 0.18976,-1.06183 0.26486,-2.0603 0.16688,-2.21882 -0.34311,-0.55516 -1.44331,-0.27878 -3.2658,0.82042 -1.01099,0.60976 -1.89568,1.10865 -1.96598,1.10865 -0.0703,0 -0.0616,-0.25318 0.0193,-0.56261 0.44861,-1.71551 -2.47489,-5.33977 -4.58455,-5.68345 -2.38704,-0.38887 -2.55802,-0.4614 -2.9712,-1.26039 -0.68859,-1.33159 -1.95118,-0.96603 -5.3763,1.55662 -3.70126,2.72603 -5.50326,4.81762 -5.1391,5.96498 0.21394,0.67407 -0.30076,1.34332 -2.63785,3.42993 -3.8434,3.43148 -22.51796,17.13366 -23.22029,17.03754 -0.10994,-0.0151 -2.62259,-0.382 -5.58366,-0.81546 z m 215.88821,-8.68769 c 0,-1.12337 -1.67483,-3.77299 -3.33027,-5.26858 -0.88348,-0.79819 -1.32993,-0.99914 -2.2197,-0.99914 -0.90729,0 -1.1701,0.12356 -1.41746,0.66644 -0.24809,0.54449 -0.17902,0.93755 0.37738,2.14801 0.37458,0.81485 1.013,1.87397 1.41871,2.35359 0.94798,1.12066 2.80723,2.03767 4.13198,2.03795 0.99646,2.1e-4 1.03936,-0.0385 1.03936,-0.93827 z"
       id="path254"
       style="stroke-width:0.277162;fill:#ff0000" />
    <path
       style="fill:#000000;stroke-width:0.277162"
       d="m 261.50222,431.36547 c -7.53916,-0.64722 -18.96189,-2.51694 -28.54767,-4.67281 -11.92846,-2.68273 -21.09775,-5.33288 -37.41686,-10.8144 -12.60187,-4.23292 -17.56915,-5.71154 -23.25457,-6.92223 -2.27172,-0.48376 -4.79029,-1.1714 -5.59683,-1.52808 -2.08213,-0.92082 -6.73364,-3.63045 -11.89139,-6.92705 -5.88762,-3.7631 -9.93718,-6.06072 -11.69004,-6.63264 -1.65074,-0.5386 -4.61194,-2.28661 -8.58451,-5.06749 -4.99049,-3.49344 -7.39492,-4.84429 -8.44409,-4.74403 -0.79802,0.0763 -0.95109,0.20675 -1.02772,0.87609 -0.0942,0.82241 0.78843,2.43021 2.11671,3.85597 0.39054,0.41921 0.58334,0.7622 0.42845,0.7622 -0.4518,0 -8.59701,-7.9652 -11.66089,-11.40319 -9.55282,-10.71921 -18.042486,-22.77301 -24.841929,-35.27107 -6.712802,-12.33881 -8.586168,-18.72734 -13.063918,-44.5504 -0.72272,-4.1679 -1.943233,-9.90117 -2.802639,-13.16518 -2.295559,-8.71851 -3.108905,-12.94894 -3.589513,-18.67003 -0.236909,-2.82012 -0.611858,-6.21887 -0.83322,-7.55278 -0.514376,-3.09958 -0.508295,-3.25653 0.126161,-3.25653 1.478161,0 5.27902,6.19335 5.868249,9.56208 0.559816,3.20057 3.003798,10.78852 5.344541,16.59347 1.871814,4.64202 3.073119,6.08863 4.944007,5.95354 0.575599,-0.0416 1.169177,0.0471 1.319063,0.19696 0.149886,0.14988 0.387818,1.08051 0.528737,2.06804 0.346928,2.43122 1.36768,4.86182 3.771917,8.98164 3.280906,5.62205 5.948716,9.02786 7.071629,9.02786 0.728815,0 1.388185,-1.04487 1.388185,-2.19978 0,-0.84985 0.0495,-0.91832 0.40592,-0.56186 0.22326,0.22325 2.66418,5.14535 5.42427,10.93799 5.51159,11.56724 7.29978,15.04492 10.61727,20.64848 4.03227,6.81092 9.46756,14.55423 14.24647,20.29603 1.13294,1.36121 1.99697,2.53783 1.92007,2.61473 -0.2315,0.2315 -5.53506,-6.10585 -9.33202,-11.15106 -5.77647,-7.67548 -8.59321,-9.72868 -8.59218,-6.26308 5.5e-4,1.6699 2.74391,6.33276 7.19021,12.22086 7.97564,10.56188 21.02482,24.51362 32.89119,35.16613 2.91379,2.61573 5.75,5.30772 6.30269,5.98221 1.55518,1.8979 10.15568,7.51372 17.36292,11.33739 5.27785,2.80006 15.23743,6.6712 23.69734,9.21078 4.43954,1.33271 18.1498,4.47919 23.42017,5.37489 4.44067,0.75469 27.60509,3.54964 32.42525,3.91233 4.4341,0.33364 9.44066,0.0725 16.35524,-0.85323 2.21037,-0.29591 4.05657,-0.53891 4.10266,-0.54 0.0461,-10e-4 -0.75176,0.79741 -1.77303,1.77445 l -1.85685,1.77645 0.15345,1.69219 c 0.13186,1.45424 0.0817,1.73059 -0.35676,1.96524 -0.61128,0.32715 -10.30185,0.29924 -14.26614,-0.0411 z"
       id="path441" />
    <path
       style="fill:#000000;stroke-width:0.277162"
       d="m 361.41907,381.37286 c 0,-0.88233 3.61841,-5.37757 6.69148,-8.31299 1.43629,-1.37195 4.29115,-3.97998 6.34413,-5.79563 7.72824,-6.83481 10.1853,-9.57294 12.34826,-13.76084 1.33284,-2.58062 3.66704,-6.18833 7.43126,-11.48566 2.83495,-3.98959 3.76446,-5.63409 3.76763,-6.66574 0.008,-2.53033 -2.46979,-1.84324 -4.97259,1.37901 -1.20957,1.55727 -1.95385,2.17313 -1.95385,1.61671 0,-0.13843 1.17447,-2.01295 2.60994,-4.1656 6.45441,-9.6791 10.44893,-19.54189 12.54196,-30.96704 0.95851,-5.23218 0.53619,-30.79875 -0.59874,-36.24678 -0.77351,-3.71312 -1.91239,-4.34172 -6.94745,-3.83463 -4.24172,0.42719 -10.09168,0.38149 -14.53476,-0.11354 -8.5872,-0.95676 -14.66071,-2.26071 -16.64443,-3.57347 -1.43397,-0.94895 -4.18596,-1.67759 -8.63221,-2.28551 -5.07248,-0.69354 -3.21523,-0.79947 3.87082,-0.22077 5.63344,0.46007 5.91864,0.45966 6.43693,-0.009 1.14701,-1.03803 0.93784,-2.30677 -0.47229,-2.86474 -0.42503,-0.16817 -2.66581,-0.68197 -4.97949,-1.14175 -2.31369,-0.45979 -7.36496,-1.58178 -11.22506,-2.49331 -12.76776,-3.01501 -28.38114,-5.60355 -42.69506,-7.0784 -3.58734,-0.36963 -11.85655,-0.59277 -11.85655,-0.31995 0,0.0553 -0.31438,1.64547 -0.69863,3.53381 -0.96065,4.72096 -1.76138,7.63655 -2.5088,9.13496 -0.3476,0.69686 -0.83421,2.06881 -1.08134,3.04878 -2.51362,9.96721 -7.27421,16.68973 -14.14249,19.97091 -2.74528,1.31149 -4.85466,1.86482 -7.89911,2.07208 -3.41827,0.23271 -6.69044,0.81334 -12.33371,2.18857 -7.23457,1.76301 -8.12019,1.89031 -10.56852,1.51919 -10.63732,-1.61244 -20.27556,-6.57545 -28.23815,-14.54065 -5.87834,-5.88027 -9.19413,-12.08895 -10.95607,-20.51481 -1.95323,-9.34065 -1.28653,-15.85905 2.51062,-24.5464 1.13892,-2.60569 3.14812,-6.1139 3.88175,-6.77784 1.5623,-1.41386 1.63824,2.19218 0.1752,8.3198 -1.94163,8.13209 -2.25669,11.75796 -1.40968,16.22305 0.91517,4.82437 3.4128,11.13063 4.55149,11.49203 0.66251,0.21028 2.32762,2.58304 3.59904,5.1286 4.21444,8.43787 11.66452,14.63281 20.2074,16.80302 3.06558,0.77876 8.0778,1.1552 9.24859,0.6946 0.54946,-0.21617 0.76219,-0.49407 0.76219,-0.99569 0,-0.90446 -1.13279,-1.64885 -5.28322,-3.47179 -3.88415,-1.70599 -5.0426,-2.59968 -5.6391,-4.35033 -0.24393,-0.7159 -0.70825,-1.58343 -1.03182,-1.92785 l -0.5883,-0.62623 0.65869,-0.13529 c 0.36228,-0.0744 1.40214,-0.19917 2.3108,-0.27725 3.32227,-0.28547 6.17058,-2.49089 6.453,-4.99649 0.13458,-1.194 0.0803,-1.32322 -0.96939,-2.30729 -0.61157,-0.57334 -1.50169,-1.33338 -1.97803,-1.68896 -0.47634,-0.35559 -0.80576,-0.74413 -0.73203,-0.86342 0.27841,-0.45048 2.31913,-0.54276 5.71561,-0.25847 3.73867,0.31294 7.63998,0.0335 9.05399,-0.64845 0.40456,-0.19512 0.97879,-0.81759 1.27607,-1.38325 0.29728,-0.56567 2.21236,-2.79906 4.25572,-4.96309 4.31119,-4.56575 5.10862,-5.64544 5.71295,-7.73513 0.24362,-0.84238 0.94204,-2.21433 1.55205,-3.04878 3.38872,-4.63555 3.99436,-7.37772 2.60001,-11.77219 -0.49987,-1.57539 -1.82912,-4.33414 -2.6452,-5.4899 -0.3022,-0.42798 -0.49321,-0.8344 -0.42446,-0.90315 0.0687,-0.0687 0.9602,0.94113 1.98102,2.24417 1.95636,2.49722 2.90635,3.13378 3.96021,2.65361 1.18769,-0.54114 1.59269,-1.59448 1.70689,-4.43932 0.12595,-3.13727 -0.22197,-4.67002 -1.35226,-5.95736 -0.90017,-1.02523 -0.86416,-1.5604 0.14119,-2.09844 0.85234,-0.45616 1.20509,-0.20335 1.87812,1.34601 2.12909,4.9013 4.98907,4.61197 3.94071,-0.39866 -1.20125,-5.7414 -4.94358,-8.87344 -16.47783,-13.79071 -9.25082,-3.94379 -11.71272,-4.5079 -20.78714,-4.76304 -12.33367,-0.34679 -11.30421,-0.84428 4.57317,-2.21001 4.42073,-0.38025 8.31832,-0.77019 8.66131,-0.86652 0.84909,-0.23847 0.78449,-0.61971 -0.13858,-0.81789 -0.41921,-0.09 -1.01164,-0.26228 -1.31652,-0.38286 -1.00197,-0.39626 2.06586,-0.62977 4.06903,-0.30972 2.99166,0.478 9.37944,2.16203 13.31782,3.51103 7.13685,2.44456 9.02937,3.63343 13.94971,8.76313 5.34946,5.57708 8.16645,12.06736 9.0044,20.74599 0.39123,4.052 0.22059,7.23771 -0.72155,13.47048 -0.373,2.46754 -0.67817,4.826 -0.67817,5.24102 v 0.75459 l 6.44401,-0.18411 c 3.54421,-0.10125 9.93626,-0.36872 14.20455,-0.59437 16.08352,-0.85026 19.37406,-1.24549 20.50195,-2.46251 0.90539,-0.97693 2.95964,-1.14962 13.17321,-1.10743 15.97357,0.066 28.08959,1.07294 43.23126,3.5929 4.03634,0.67175 7.6801,1.22137 8.09724,1.22137 0.96117,0 1.33324,-0.67388 1.32897,-2.40695 -0.004,-1.82389 -0.50865,-3.57167 -2.054,-7.12068 -0.7219,-1.65788 -1.44341,-3.71581 -1.60338,-4.57317 -0.41825,-2.24174 -0.71122,-2.92317 -1.38817,-3.22874 -0.43361,-0.19573 -0.69636,-0.70614 -0.95296,-1.85121 -0.19486,-0.86952 -0.97491,-2.93943 -1.73343,-4.59979 -1.86966,-4.09256 -1.92067,-4.34961 -1.02739,-5.17748 1.42261,-1.31843 0.81612,-3.81349 -2.06032,-8.4761 -2.05374,-3.32903 -3.09105,-6.00564 -2.97933,-7.68769 0.11927,-1.79573 0.37141,-1.8766 4.55556,-1.46101 1.96069,0.19474 4.12614,0.31 4.81212,0.25614 1.18842,-0.0933 1.25414,-0.14367 1.39382,-1.068 0.20778,-1.37496 -0.1908,-3.32967 -0.86629,-4.24851 -0.31699,-0.43119 -0.53373,-0.82659 -0.48166,-0.87867 0.19234,-0.19233 3.77851,1.49568 6.46743,3.04421 4.98901,2.87314 7.51085,4.9448 8.22434,6.75622 0.15845,0.40227 0.39432,1.64313 0.52416,2.75745 0.24536,2.10571 0.4499,2.55145 2.77434,6.04581 0.69732,1.04828 2.46222,3.97474 3.92199,6.50323 1.45978,2.52849 3.54232,6.02067 4.62787,7.76041 3.43441,5.50409 6.92615,15.87356 7.64495,22.70331 0.2219,2.1084 0.7231,3.04878 1.62494,3.04878 0.35396,0 0.88116,0.26356 1.17155,0.5857 0.72662,0.80603 0.64724,3.4077 -0.26121,8.56064 -0.9685,5.49358 -1.27114,9.01446 -1.57043,18.27001 -0.26148,8.08611 -0.5223,11.55414 -1.24707,16.58213 -0.59878,4.15399 -0.8594,5.12217 -2.05599,7.63794 -0.59425,1.24936 -2.41493,5.95088 -4.04597,10.44784 -1.63105,4.49695 -3.88146,10.27935 -5.00093,12.84979 -1.91778,4.40346 -5.02212,10.33239 -5.27668,10.07783 -0.0637,-0.0637 0.9353,-2.28628 2.21996,-4.93911 2.69965,-5.57482 4.42037,-10.04844 6.12094,-15.91363 2.62497,-9.05338 3.10687,-15.10149 1.20324,-15.10149 -0.83266,0 -1.44889,1.36736 -3.85961,8.56424 -4.34357,12.96714 -7.89941,20.35891 -14.413,29.96126 -6.90191,10.17479 -15.23625,19.60997 -23.11453,26.1676 -2.89319,2.4082 -24.23351,18.59167 -25.56818,19.38967 -0.19055,0.11393 -0.34645,0.12923 -0.34645,0.034 z"
       id="path517" />
    <path
       style="fill:#000000;stroke-width:0.277162"
       d="m 102.96563,248.63336 c -14.37894,-2.1635 -17.835755,-2.91912 -18.916058,-4.13485 -0.291321,-0.32784 -0.679985,-1.12411 -0.863696,-1.76949 -0.398433,-1.39969 -0.73573,-1.60399 -3.068494,-1.85852 -2.174186,-0.23722 -3.1982,-0.73524 -3.909091,-1.90114 -0.696822,-1.14283 -0.691806,-2.88458 0.0148,-5.13873 0.344642,-1.09945 0.553026,-2.55156 0.556835,-3.88027 0.0043,-1.51372 0.16362,-2.47049 0.554806,-3.33259 0.643999,-1.41926 2.601937,-4.27428 4.217449,-6.14977 l 1.141313,-1.32498 1.266891,0.64863 c 1.877589,0.9613 4.231318,1.19817 13.877755,1.39661 10.49256,0.21584 16.39432,-0.11127 17.29696,-0.95871 0.80575,-0.75647 4.16445,-1.13478 9.99621,-1.12595 6.88564,0.0104 12.06381,0.60584 12.06381,1.38713 0,0.54608 2.4159,0.85818 8.59202,1.10997 16.54618,0.67458 20.03742,1.00122 28.25574,2.64361 4.77269,0.95379 6.45506,1.45372 3.75645,1.11624 -2.42597,-0.30338 -12.595,-1.25052 -17.04545,-1.58761 -11.41205,-0.86438 -23.55876,0.058 -23.55876,1.78905 0,0.99182 2.66376,1.42291 13.99668,2.26511 19.57668,1.45483 25.75957,2.08777 39.2184,4.01478 7.75597,1.11048 9.18394,1.41839 10.04936,2.16697 0.45536,0.39387 0.45701,0.45492 0.0253,0.93198 -0.98319,1.08642 -4.14672,1.57093 -12.29193,1.88258 -6.79731,0.26008 -8.45516,0.53613 -9.861,1.64196 -1.17727,0.92604 -2.70608,1.20698 -7.6002,1.39664 -5.27582,0.20444 -5.97619,0.42054 -5.70806,1.76121 0.3517,1.75852 1.67961,2.44267 6.30144,3.24657 1.60367,0.27893 2.43564,0.51212 1.88461,0.52822 -2.32224,0.0678 -17.38749,0.87986 -21.325,1.14941 -5.20585,0.35638 -10.86211,0.95699 -14.41241,1.53039 -6.64,1.07241 -12.2034,1.55092 -19.26275,1.65682 l -7.20621,0.10811 -8.0377,-1.20938 z"
       id="path556" />
    <path
       style="fill:#000000;stroke-width:0.277162"
       d="m 101.9966,176.52199 c -0.003,-0.8384 7.05051,-16.03326 10.44119,-22.49325 4.91785,-9.36958 12.56682,-19.21023 23.22261,-29.87665 14.63624,-14.65085 28.59549,-24.601194 44.8745,-31.987161 16.70989,-7.581461 35.14734,-13.164946 48.53938,-14.699366 7.57755,-0.868214 31.15993,-0.794135 39.77273,0.124937 13.26996,1.416039 28.50581,5.333252 45.0388,11.579698 10.13009,3.827319 18.99981,7.871642 21.48004,9.79424 0.68598,0.531746 3.30516,2.326582 5.8204,3.988522 6.04073,3.99139 9.19196,6.24991 10.15739,7.27993 1.0542,1.12472 0.77991,0.98763 -2.95118,-1.47498 -12.13327,-8.00826 -30.55885,-16.318901 -44.17248,-19.923477 -21.62533,-5.725891 -53.07398,-8.299395 -72.98557,-5.972551 -10.95949,1.280714 -24.93075,4.733227 -36.62203,9.049872 -12.70604,4.691307 -36.96584,19.031616 -48.96382,28.943186 -5.68525,4.6966 -15.67042,14.56824 -23.2565,22.99207 -4.99322,5.54463 -8.48365,11.00962 -16.09386,25.19829 -3.60721,6.72538 -4.30007,7.92965 -4.3016,7.47669 z"
       id="path595" />
    <path
       style="fill:#000000;stroke-width:0.277162"
       d="m 467.91785,228.58798 c -0.46042,-1.02967 -0.99692,-2.40552 -1.19224,-3.05746 -0.8592,-2.86774 -3.52639,-3.48168 -4.95072,-1.13957 l -0.50141,0.82452 -0.30228,-0.77292 c -1.11111,-2.84124 -3.17863,-14.57127 -3.92228,-22.25297 -0.70546,-7.28715 -0.91064,-8.89889 -1.5701,-12.3337 -1.83702,-9.56838 -5.33422,-21.61971 -8.88689,-30.6241 -2.5262,-6.40285 -11.06192,-22.93161 -15.70633,-30.41412 -7.23581,-11.65746 -16.44861,-21.36041 -34.95988,-36.819908 -21.07541,-17.600901 -28.19348,-22.331883 -44.43548,-29.533743 -4.98308,-2.209545 -8.57872,-3.376322 -19.03583,-6.177092 -4.87736,-1.306323 -9.80336,-2.675431 -10.94665,-3.042462 l -2.07871,-0.667329 1.59368,-0.02748 c 0.88546,-0.01527 1.59368,-0.153694 1.59368,-0.311499 0,-0.412977 -1.17756,-0.805564 -4.15743,-1.386051 -23.86868,-4.64968 -71.08236,-0.353492 -102.12553,9.292868 -14.67883,4.561304 -32.30181,12.584786 -45.15539,20.558589 -1.81244,1.124357 -3.34895,1.990671 -3.41447,1.925147 -0.14831,-0.148309 4.24289,-3.22125 7.71232,-5.397046 8.1374,-5.103235 24.4961,-12.877094 34.4742,-16.382573 4.44989,-1.563323 8.17628,-3.205174 8.17628,-3.602478 0,-0.134007 -0.15591,-0.302483 -0.34646,-0.37439 -1.80607,-0.681558 20.10399,-5.538686 36.3775,-8.064338 10.19051,-1.581571 25.38524,-2.241683 46.62442,-2.025529 16.03514,0.163192 20.00864,0.390509 25.71099,1.470884 22.30493,4.225925 41.53938,12.619905 60.28654,26.30925 10.30804,7.527024 20.63647,16.450951 30.9328,26.72643 7.96225,7.94612 10.94769,11.26429 15.12686,16.81276 11.86853,15.75719 20.39996,29.75656 24.03053,39.43209 0.70823,1.88748 1.89745,4.63844 2.64271,6.11326 2.29304,4.53771 4.99166,12.64949 7.38218,22.19001 0.8692,3.46901 1.03808,4.68244 1.23425,8.86918 0.125,2.66768 0.54801,7.00007 0.94003,9.62753 1.21,8.11041 1.56809,15.59911 1.01768,21.28317 -0.26538,2.74074 -0.74382,4.84318 -1.10214,4.84318 -0.12613,0 -0.60604,-0.84245 -1.06643,-1.87211 z"
       id="path634" />
    <path
       style="fill:#ff0000;stroke-width:0.277162"
       d="m 335.5711,96.200853 c -1.17223,-0.425153 -1.55622,-0.68658 -3.069,-2.089446 -1.1967,-1.109749 -2.01162,-2.470244 -1.66371,-2.777559 0.1273,-0.11245 0.85507,-0.370908 1.61726,-0.574351 0.7622,-0.203443 3.31902,-1.104501 5.68182,-2.002351 2.36281,-0.897849 5.2202,-1.872289 6.34977,-2.165421 2.31583,-0.600977 5.55936,-0.708098 6.06708,-0.200372 1.4952,1.495197 -2.3196,4.827285 -9.76539,8.529717 -3.30745,1.644632 -3.847,1.776969 -5.21783,1.279783 z"
       id="path784" />
    <path
       style="fill:#ff0000;stroke-width:0.277162"
       d=""
       id="path860" />
    <path
       style="fill:#ff0000;stroke-width:0.277162"
       d="m 284.2499,77.59469 c -0.86927,-0.453306 -6.13364,-1.356368 -9.64994,-1.655373 -1.18038,-0.100372 -2.22728,-0.313769 -2.32644,-0.474214 -0.29526,-0.477742 1.00143,-1.251864 3.41764,-2.040327 2.41137,-0.786884 3.13367,-0.753091 3.13367,0.14661 0,0.863321 1.07538,1.369068 3.3351,1.568489 1.13826,0.100452 2.46289,0.341897 2.94363,0.536546 1.09,0.441336 1.48454,1.454511 0.76989,1.977072 -0.62467,0.456774 -0.63563,0.456377 -1.62355,-0.0588 z"
       id="path899" />
    <path
       style="fill:#ff0000;stroke-width:0.277162"
       d="m 351.73105,106.9376 c -0.32005,-0.40688 -0.53971,-0.87459 -0.48812,-1.03935 0.12143,-0.38786 3.65883,-1.58413 4.1392,-1.39979 0.20176,0.0774 0.48892,0.41031 0.63814,0.73976 0.14922,0.32944 0.6962,0.73961 1.21551,0.91148 l 0.94421,0.3125 -2.05286,0.60847 c -2.76902,0.82074 -3.6672,0.79356 -4.39608,-0.13307 z"
       id="path938" />
  </g>
</svg>
